<?xml version="1.0" encoding="UTF-8" standalone="no"?> <!-- Created with Vectornator for iOS (http://vectornator.io/) --><!DOCTYPE svg PUBLIC "-//W3C//DTD SVG 1.1//EN" "http://www.w3.org/Graphics/SVG/1.1/DTD/svg11.dtd">
<svg height="100%" style="fill-rule:nonzero;clip-rule:evenodd;stroke-linecap:round;stroke-linejoin:round;" xmlns:xlink="http://www.w3.org/1999/xlink" xmlns="http://www.w3.org/2000/svg" xml:space="preserve" width="100%" xmlns:vectornator="http://vectornator.io" version="1.1" viewBox="0 0 381 500">
<metadata>
<vectornator:setting key="DimensionsVisible" value="1"/>
<vectornator:setting key="PencilOnly" value="0"/>
<vectornator:setting key="SnapToPoints" value="0"/>
<vectornator:setting key="OutlineMode" value="0"/>
<vectornator:setting key="CMYKEnabledKey" value="0"/>
<vectornator:setting key="GuidesVisible" value="1"/>
<vectornator:setting key="RulersVisible" value="1"/>
<vectornator:setting key="SnapToEdges" value="0"/>
<vectornator:setting key="DisplayWhiteBackground" value="0"/>
<vectornator:setting key="doHistoryDisabled" value="0"/>
<vectornator:setting key="SnapToGuides" value="1"/>
<vectornator:setting key="TimeLapseWatermarkDisabled" value="0"/>
<vectornator:setting key="Units" value="Points"/>
<vectornator:setting key="SnapToGrid" value="0"/>
<vectornator:setting key="DynamicGuides" value="0"/>
<vectornator:setting key="IsolateActiveLayer" value="0"/>
</metadata>
<defs>
<linearGradient y1="237.683" id="LinearGradient" x1="2.13058" y2="211.841" x2="383.225" gradientUnits="userSpaceOnUse" gradientTransform="matrix(1 0 0 -1 4.20264 408.632)">
<stop stop-opacity="0.541713" stop-color="#000000" offset="0"/>
<stop stop-opacity="0.935872" stop-color="#000000" offset="1"/>
<stop stop-opacity="0.975644" stop-color="#000000" offset="1"/>
<stop stop-opacity="0.897297" stop-color="#000000" offset="1"/>
<stop stop-opacity="0.94506" stop-color="#000000" offset="1"/>
<stop stop-opacity="0.561734" stop-color="#000000" offset="1"/>
</linearGradient>
</defs>
<g id="Untitled" vectornator:layerName="Untitled">
<path d="M184.16+53.8168C190.6+53.8168+184.662+62.7825+187.805+72.2137C191.411+83.0318+201.101+90.5313+211.069+95.8015C213.28+96.3545+214.995+97.8417+216.889+98.4733C221.129+99.8865+226.062+100.913+230.153+103.244C233.045+103.244+257.453+113.078+261.26+115.267C262.807+115.743+266.885+117.387+268.13+118.13C268.905+119.047+276.284+122.588+277.863+123.664C283.004+124.95+291.99+132.525+295.42+136.641C300.845+142.568+305.441+150.967+306.813+158.74C307.043+160.042+307.358+165.172+308.244+165.897C309.829+167.194+312.734+167.436+314.695+168.702C315.405+168.88+316.263+169.13+316.985+169.466C318.69+171.197+321.031+172.091+322.767+173.511C324.418+174.862+325.662+176.787+327.863+178.053C328.812+179.122+330.153+180.498+330.534+182.061C331.786+183.219+332.59+184.263+333.588+185.687C333.588+186.052+333.779+186.24+333.779+186.641C335.764+188.638+336.45+191.18+337.634+193.378C341.492+200.544+342.97+208.476+344.37+216.412C344.813+218.922+344.542+227.692+344.924+228.836C345.111+229.399+345.736+229.731+346.565+230.153C347.29+231.026+348.686+231.786+349.237+232.824C351.002+233.38+352.379+235.299+353.435+236.355C362.158+245.078+368.283+255.63+372.156+267.252C378.313+285.721+379.537+306.41+373.302+325.114C372.026+328.941+371.261+332.966+369.313+336.584C367.94+339.133+366.429+341.667+365.076+344.179C364.433+345.374+364.076+346.971+363.206+348.034C355.859+357.015+347.324+365.886+337.023+372.137C336.09+373.192+335.085+373.521+333.779+374.237C331.301+376.643+324.226+379.967+320.992+381.87C320.333+382.009+320.043+382.136+319.275+382.252C318.452+383.21+316.887+383.541+315.84+384.351C309.961+386.402+304.798+389.387+299.179+391.26C270.048+400.97+240.525+405.827+209.828+407.443C196.839+408.126+183.814+406.787+170.897+406.107C165.607+405.828+160.372+404.58+154.58+404.58C154.191+404.001+129.064+400.887+125.573+398.855C117.337+398.855+94.9073+389.737+85.8779+387.023C85.6363+386.573+85.2364+386.45+84.542+386.45C84.1351+385.856+83.5347+385.851+83.0153+385.305C82.0853+385.054+81.412+384.981+80.7252+384.351C80.025+384.351+79.4695+384.251+78.8168+383.969C76.8476+382.008+73.4992+382.137+71.1832+380.344C69.5286+378.657+66.8644+378.156+64.6947+376.908C62.6764+374.904+59.4934+373.64+57.0611+372.137C56.3106+371.552+55.4907+371.257+54.771+370.611C54.266+370.611+53.9168+370.52+53.4351+370.229C52.2424+368.947+50.681+368.094+49.0458+367.176C46.9048+365.064+39.5395+360.268+38.3588+358.206C37.0531+357.818+36.6934+356.565+35.4962+355.916C33.052+353.539+30.6687+351.129+28.6832+348.702C28.0041+347.872+27.344+345.879+26.145+345.229C26.065+344.77+20.6558+336.571+19.8473+335.115C17.1885+332.348+12.9309+322.171+11.7176+318.531C10.4681+314.782+9.14762+311.012+7.90076+307.271C2.99884+292.565+4.97556+271.347+12.2137+257.443C12.2137+256.405+14.4799+252.639+15.0763+251.527C15.9138+250.842+16.1191+250.008+16.6412+249.37C21.4988+243.433+26.7887+236.892+33.9695+233.015C34.6623+232.842+35.0137+232.589+35.4962+232.061C36.1267+231.613+36.8428+231.483+37.4046+230.916C39.1596+230.477+41.3551+229.623+42.9389+228.626C42.9389+228.308+43.0641+228.053+43.5115+228.053C44.1677+225.428+43.3759+221.564+43.5115+218.989C43.771+214.058+45.8855+199.824+48.855+195.611C50.9606+193.477+51.8667+190.096+53.4351+187.405C54.9489+185.947+55.7299+184.251+57.0611+182.443C59.0613+181.802+60.1678+178.99+61.5458+177.863C63.9182+175.922+66.1629+174.419+69.084+172.71C71.1744+170.642+75.0277+169.048+78.0534+168.511C78.0534+163.247+79.7346+153.611+82.8244+149.237C83.6028+148.62+83.8744+147.709+84.542+146.947C85.5399+145.835+86.0547+143.921+86.8893+142.901C88.3274+141.143+90.2897+139.491+91.603+137.214C92.9647+135.93+96.8069+132.343+98.6641+131.87C100.186+130.3+101.954+129.622+103.626+128.721C105.602+127.657+107.699+126.091+109.828+125.382C114.493+123.827+119.11+122.406+123.912+121.298C126.824+120.626+153.205+117.914+160.878+116.603C154.755+103.975+158.459+87.5219+164.656+76.0114C165.886+73.7274+167.775+71.7027+169.275+69.2748C170.197+66.501+173.096+63.7883+175.382+62.0229C178.155+59.3573+180.325+55.3494+184.16+53.8168ZM180.916+62.9771C179.639+64.6804+178.128+65.8365+176.718+67.1756C174.899+70.2736+172.294+72.541+170.744+75.4199C164.574+86.879+160.178+99.2562+164.523+112.29C170.06+128.9+190.095+125.963+185.496+131.584C184.39+132.936+182.383+132.213+181.011+131.87C175.767+130.559+171.438+128.219+167.271+124.809C166.257+123.979+164.625+121.088+163.282+121.088C162.864+121.088+148.862+123.444+147.29+123.721C139.32+125.128+131.088+125.043+123.111+126.45C112.966+128.241+101.432+133.696+94.2748+141.603C92.3278+144.91+89.6803+147.069+87.5573+151.011C84.3995+156.876+81.7158+168.029+83.855+174.447C84.9622+177.768+86.6022+180.557+88.2443+183.607C89.4296+185.808+91.3629+188.506+93.3206+190.458C95.6165+191.783+97.2357+194.17+99.0458+195.992C101.173+197.213+102.92+198.806+104.542+200.134C108.243+203.162+112.86+205.611+117.042+207.863C153.65+227.575+216.596+232.973+255.859+219.885C274.123+213.797+299.153+203.241+302.958+181.679C303.624+177.908+302.871+174.105+302.672+170.324C302.569+168.367+302.957+166.358+302.844+164.427C302.565+159.693+300.566+154.364+298.34+150.229C296.285+146.413+294.165+142.964+291.412+139.599C282.084+128.198+251.316+115.089+237.08+110.343C229.196+107.715+220.89+106.045+213.492+102.061C209.768+100.056+206.032+98.0735+202.309+96.0687C200.221+94.9441+198.43+93.3116+196.622+91.8321C187.775+84.5937+181.489+75.1054+181.489+62.9771L180.916+62.9771ZM308.969+171.183C308.067+172.309+309.547+179.329+305.725+190.076C304.946+191.062+304.117+192.499+303.817+193.702C303.191+194.381+302.806+195.266+302.099+195.802C301.772+197.335+300.647+198.334+299.618+199.237C298.336+200.99+297.108+202.378+295.611+203.817C293.969+206.628+285.907+212.008+282.824+213.359C282.105+214.005+281.521+214.392+280.534+214.695C251.84+229.328+224.045+233.161+192.271+231.489C185.78+231.147+179.192+230.943+172.767+229.809C164.767+228.397+156.853+226.507+148.855+225.095C138.11+223.199+120.498+214.237+116.985+213.359C114.046+211.603+106.8+208.562+104.58+206.298C104.021+205.246+102.349+204.724+101.66+204.16C99.4126+202.321+97.1288+200.517+94.8473+198.282C89.3267+194.333+86.7804+189.227+83.7786+186.069C83.2189+185.016+82.8106+184.323+82.4427+183.206C80.3246+179.542+79.5286+178.42+78.4351+174.046C76.1296+174.777+71.8458+175.524+70.229+177.099C66.3258+179.337+62.6185+183.528+59.9618+186.775C59.1427+187.776+58.615+189.009+57.4427+190.076C56.8089+191.249+56.4652+192.339+55.5344+193.13C54.6354+196.35+52.8789+198.863+51.9466+201.66C48.4801+212.06+47.3642+224.094+50.0382+234.79C50.3707+236.12+51.2054+240.445+52.2901+241.412C53.0444+243.775+54.5842+245.627+55.1527+247.901L55.7252+247.901C56.8151+249.608+57.3809+251.347+58.7786+252.672C66.4535+265.286+79.5766+273.347+92.0038+280.038C93.301+280.737+94.9959+281.165+96.1832+282.443C104.664+285.644+112.584+288.819+120.763+291.546C150.689+301.521+202.658+305.149+233.569+299.695C237.569+298.989+241.61+298.511+245.611+297.805C249.911+297.046+254.127+295.719+258.416+294.962C262.187+294.296+266.235+293.31+269.866+292.099C285.873+286.764+290.831+284.546+306.107+277.099C307.208+276.262+310.349+274.814+311.26+274.046C312.441+273.169+313.24+272.007+314.695+271.565C315.382+270.935+315.91+270.273+316.794+270.038C318.649+268.825+320.936+266.804+322.519+265.267C322.723+264.872+322.83+264.504+323.282+264.504C325.21+263.254+326.293+260.963+327.863+259.351C328.623+258.971+328.96+258.451+329.58+258.015C331.742+254.879+333.135+251.308+335.687+248.664C335.687+246.821+336.918+245.218+337.347+243.931C338.137+241.563+338.575+239.076+339.008+236.622C340.332+229.119+339.963+220.83+338.645+213.359C338.213+210.913+337.358+208.546+336.927+206.107C336.744+205.067+336.688+203.862+336.355+202.863C334.946+198.637+332.776+194.717+330.668+190.802C329.312+188.284+327.637+185.036+325.382+182.824C324.837+182.308+324.266+181.705+323.855+181.107C323.46+180.903+323.092+180.796+323.092+180.344C322.697+180.139+322.328+180.033+322.328+179.58C318.83+177.515+313.043+171.883+308.969+171.183ZM43.7023+233.206C41.5958+233.78+39.6613+235.492+38.1298+236.317C27.7627+241.899+19.4958+251.806+14.9046+262.519C2.47038+291.532+15.7569+325.609+34.542+348.569C40.3386+355.653+48.401+360.051+53.4351+364.695C54.4176+365.211+55.0728+365.412+55.7252+366.221C56.645+366.699+57.448+367.013+58.0153+367.748C60.3541+369.099+62.8198+369.877+64.6947+371.756C66.4525+372.749+79.8269+379.389+80.916+379.389C81.4949+379.965+82.3354+380.344+83.2061+380.344C83.7256+380.889+84.326+380.894+84.7328+381.489C88.9872+382.711+92.4811+384.637+96.2595+385.897C101.651+387.694+107.123+389.213+112.519+391.011C115.964+392.16+119.862+393.015+123.435+393.645C124.136+393.769+124.688+394.27+125.363+394.389C131.474+395.468+137.559+396.979+143.645+398.053C152.823+399.673+167.976+401.614+177.195+402.099C187.758+402.655+206.83+402.84+217.271+402.29C228.502+401.699+243.763+399.939+254.771+397.996C256.647+397.665+258.419+396.993+260.305+396.66C268.855+395.151+291.854+389.855+299.427+386.26C302.473+384.451+306.947+384.188+309.542+381.679C310.699+381.408+311.459+380.725+312.595+380.725C315.958+378.758+324.359+375.394+326.718+373.092C328.869+371.856+331.341+370.978+333.015+369.275C333.836+369.115+334.531+368.714+335.115+368.321C337.769+366.707+340.537+364.387+342.748+362.214C343.479+361.856+343.864+361.666+344.275+361.069C345.681+360.205+347.987+358.828+348.473+357.252C349.707+356.581+350.3+355.558+351.145+354.58C351.592+354.58+351.718+354.325+351.718+354.008C355.915+351.909+364.724+335.199+366.24+330.649C367.277+327.541+368.565+324.516+369.599+321.412C370.472+318.793+370.646+315.735+371.126+313.015C373.843+297.619+372.048+281.583+367.157+266.908C365.685+262.495+362.901+257.451+360.687+253.34C360.059+252.173+359.002+251.21+358.397+249.618C356.512+246.42+353.596+243.199+350.954+240.649C350.392+240.391+350.26+240.16+350+239.695C349.507+239.281+349.175+238.877+348.855+238.359C347.294+237.487+346.598+236.046+344.847+235.496C344.29+238.009+344.358+240.152+343.664+242.233C342.739+245.01+341.04+247.862+340.267+250.954C339.584+251.748+339.394+252.816+338.74+253.626C337.976+254.583+337.177+255.302+336.832+256.489C336.05+256.882+330.813+264.165+329.389+265.649C328.424+266.132+320.003+273.563+318.55+274.752C316.08+276.772+312.493+278.024+310.115+280.344C305.723+282.958+301.364+285.364+296.565+287.023C294.043+288.57+291.614+289.5+288.74+290.458C284.93+292.649+280.877+293.722+276.985+295.019C250.299+303.914+218.057+308.157+189.981+306.679C186.048+306.472+182.082+306.886+178.149+306.679C161.741+305.816+149.14+302.874+133.397+300.095C119.808+297.697+102.033+290.9+89.9427+284.389C88.5307+283.629+86.1282+283.192+84.7328+281.87C84.0313+281.233+83.3908+281.078+82.8244+280.344C82.2978+280.344+81.8702+280.282+81.8702+279.771C80.1581+278.805+78.1176+278.236+76.7176+276.908C75.7104+276.119+74.6728+275.572+73.855+274.618C72.4896+274.331+71.5823+273.25+70.8015+272.328C67.7988+269.911+65.1328+267.511+62.4046+264.885C59.4615+263.162+54.7103+255.789+52.5191+253.111C51.6126+252.003+51.2714+250.417+50+249.237C46.9585+244.151+46.734+238.824+44.8473+233.397C44.634+233.279+44.6565+233.347+44.6565+233.206L43.7023+233.206Z" opacity="1" fill="url(#LinearGradient)"/>
</g>
</svg>
