<?xml version="1.0" encoding="UTF-8" standalone="no"?> <!-- Created with Vectornator for iOS (http://vectornator.io/) --><!DOCTYPE svg PUBLIC "-//W3C//DTD SVG 1.1//EN" "http://www.w3.org/Graphics/SVG/1.1/DTD/svg11.dtd">
<svg height="100%" style="fill-rule:nonzero;clip-rule:evenodd;stroke-linecap:round;stroke-linejoin:round;" xmlns:xlink="http://www.w3.org/1999/xlink" xmlns="http://www.w3.org/2000/svg" xml:space="preserve" width="100%" xmlns:vectornator="http://vectornator.io" version="1.1" viewBox="0 0 636 833.5">
<metadata>
<vectornator:setting key="DimensionsVisible" value="1"/>
<vectornator:setting key="PencilOnly" value="0"/>
<vectornator:setting key="SnapToPoints" value="0"/>
<vectornator:setting key="GuidesVisible" value="1"/>
<vectornator:setting key="OutlineMode" value="0"/>
<vectornator:setting key="RulersVisible" value="1"/>
<vectornator:setting key="SnapToEdges" value="0"/>
<vectornator:setting key="CMYKEnabledKey" value="0"/>
<vectornator:setting key="DisplayWhiteBackground" value="0"/>
<vectornator:setting key="doHistoryDisabled" value="0"/>
<vectornator:setting key="SnapToGuides" value="1"/>
<vectornator:setting key="TimeLapseWatermarkDisabled" value="0"/>
<vectornator:setting key="Units" value="Points"/>
<vectornator:setting key="SnapToGrid" value="0"/>
<vectornator:setting key="DynamicGuides" value="0"/>
<vectornator:setting key="IsolateActiveLayer" value="0"/>
</metadata>
<defs>
<linearGradient y1="237.683" id="LinearGradient" x1="2.13058" y2="211.841" x2="383.225" gradientUnits="userSpaceOnUse" gradientTransform="matrix(1 0 0 -1 128.017 830.871)">
<stop stop-opacity="0.541713" stop-color="#000000" offset="0"/>
<stop stop-opacity="0.935872" stop-color="#000000" offset="1"/>
<stop stop-opacity="0.975644" stop-color="#000000" offset="1"/>
<stop stop-opacity="0.897297" stop-color="#000000" offset="1"/>
<stop stop-opacity="0.94506" stop-color="#000000" offset="1"/>
<stop stop-opacity="0.561734" stop-color="#000000" offset="1"/>
</linearGradient>
</defs>
<g id="Untitled" vectornator:layerName="Untitled">
<path stroke="#000000" stroke-width="1" d="M94.503+39.224L41.087+169.658M40.5+169.5L50.5+231M50.5+230.5L80.5+309M94.5+40.5L58.5+165.5M40.5+171.5L59.5+165M59.5+165L72+223M58.5+165L50+229.5M72+222.5L95+232.5M72+222.5L122+199M122+199.5L147+152.5M147+152L215+98M215+98.5L162+156.5M162+156.5L133+211M133+211L148.5+151M122+199L133+210.5M133+210.5L94.5+231.5M96.5+231L121+199M97+232L76+243M76+243L51+229.5M77.5+243L80+309.5M-1+254L24+304M-0.5+253L30.5+299M30.5+298.5L80.5+310M80.5+310L33.5+292.5M33.5+292.5L-0.5+252.5M24.5+304L132+367M132+367L79.5+309.5M79.5+309.5L145+351M145+351L212.5+381.5M212.5+381.5L219+368.5M229+374.5L201+356.5M201+356.5L143.5+349.5M143.5+349.5L97+309M97+309L77.5+241M132+366L213+381.5M213+381.5L220+384.5M220+384.5L248.5+411.5M248.5+411.5L248+425M248+425L258+441.5M258+441.5L262.5+400.5M262.5+400.5L249.5+410M262.5+400.5L278+387.5M278+387.5L229.5+374.5M229.5+374.5L263+401M229.5+373L239.5+402.5M200+356.5L159+294M159+294L166+216M166+216L176.5+298M176.5+298L224.5+356M224.5+355.5L278+389M176.5+297.5L194.5+348M217.5+289L237+364M217+289.5L244+224M244+224L230.5+295M230.5+295L248.5+354M248.5+354L277.5+388.5M217.5+289.5L231+296.5M231+296L232.5+346.5M258.5+441L300+403M300+403L263+399.5M300+402.5L291+392.5M291+392.5L277.5+388M258+441L249.5+445.5M249.5+445.5L241+442M241+442L175.5+387.5M175.5+387.5L155.5+386.5M155.5+386.5L154+407.5M154+407.5L169+445.5M169+445.5L192+471M192+471L230.5+486M230.5+486L252+505.5M252+505.5L245.5+488.5M245.5+488.5L243+467M243+467L249.5+444.5M242.5+442.5L224.5+457M225+457L244.5+467M244+467L272+468.5M272+468.5L256.5+440.5M215+444L222+452M222+452L251+504.5M214+444L230+486M213.5+444.5L191+469M214+443.5L169+444.5M169+444.5L168+401M168+401L175.5+388.5M155+388L169+400M169+400L155+407M169+400L183+434.5M182.5+434.5L195.5+403M183+435.5L227+429.5M183+435.5L213.5+444M299.5+403L327+403M327+402.5L337.5+393M337.5+393L350+388M350+388L346+416.5M346+416.5L336.5+394M311.5+403L272+468.5M272+468.5L300+402.5M257.5+441L281+447M311.5+403L314+497.5M314+497.5L273+467M273+467L277+490M277+490L289+514.5M289+514.5L314+497M314+497L358.5+464.5M359+464.5L337.5+448M337.5+448L313.5+497M337.5+447.5L311+401.5M272.5+467L251+505.5M251+505.5L265+506.5M265+506.5L277.5+489.5M266.5+506L253.5+530.5M251.5+506L257+574.5M265+504.5L289.5+515M289.5+515L266+565.5M266+565.5L254+529.5M288.5+515L314+521.5M314+521L338+511.5M338+511.5L313.5+495.5M338+510.5L352.5+520.5M352.5+520.5L374+482.5M374.5+482.5L359+463.5M359+463.5L346.5+415.5M311+403.5L350+428M350.5+428.5L381+413M381+413L346.5+416.5M350+388.5L381.5+414M382.5+413L393.5+387.5M393.5+387.5L379+377M379+377L375+359M375+359L348+389.5M348+389.5L380+376.5M394+387.5L349+388.5M391+355L393.5+388.5M393.5+388.5L416.5+367M416.5+367L497+339M375+359L399+298.5M399+298.5L389+240.5M389+240.5L411+300.5M411+300.5L391+355.5M391+355.5L393.5+312M392+355.5L416+345M416.5+345L467+303.5M467+303.5L486.5+269M486.5+269L494.5+216M494.5+216L501+270.5M501+270.5L481.5+310M481.5+310L457+332.5M457+332.5L466.5+304M457.5+332.5L417+343.5M407+349.5L424.5+344.5M424.5+344.5L497+338M497+338L533.5+271.5M512.5+309.5L630.5+215.5M630.5+215.5L635+156.5M635+156.5L618+210M618+210L558.5+260M558.5+260L550+264M550+264L533.5+272M533.5+272L551.5+191M552+191.5L540.5+169.5M540.5+169.5L489.5+131.5M489.5+131.5L438.5+55M438.5+55L504.5+127.5M504.5+127.5L491.5+133M504+126.5L541.5+170M541.5+170L564.5+178.5M564.5+178.5L550+159M550+159L504+126.5M565+179L556+261M549.5+201.5L550+265M560+258L581.5+176.5M581.5+176.5L596.5+85.5M596.5+86L544+0M544+0L578+89.5M578+89.5L577+115.5M577+116L564.5+178.5M564.5+178.5L588+133.5M589.5+122.5L578+115.5M578+116L596+86M596.5+86L556.5+33M498+338L569+281M569+281L631+216M381.5+413L380.5+429.5M380.5+429.5L358.5+464.5M358.5+464.5L374.5+461M374.5+461L379+444M379+444L374+439M379+443.5L391.5+441.5M391.5+441.5L430+392.5M430+392.5L454+377.5M454+377.5L475.5+376.5M475.5+376.5L474.5+399.5M474.5+399.5L467+412M467+412L462+440.5M462+440.5L440+468M440+468L459.5+391M459.5+391L475+376.5M460+391L474.5+398.5M459.5+390.5L467+412M460+390L453.5+377M450.5+424.5L429.5+392.5M451+424L400.5+428.5M451+424.5L417.5+442.5M417.5+442.5L400+431.5M418+442L441+467.5M441+467.5L424+474M424+474L387.5+506.5M387.5+506.5L418+441M418+441L415.5+482M379+443.5L389+460.5M389+460.5L388.5+477.5M388.5+477.5L384+494.5M374.5+461L387.5+507M374.5+483L383.5+492.5M387+506L385.5+521.5M385.5+521.5L398.5+591.5M386+521.5L339.5+537.5M339.5+537.5L352+520.5M533+271.5L493+322.5M493+322.5L456.5+333M339.5+537.5L353.5+543.5M353.5+543.5L385+541M388+533L353.5+586M382.5+541.5L378.5+564M378.5+564.5L354+586.5M379+564L425.5+659.5M424.879+657.326L397.879+588.826M339.5+538L333+555.5M333+555.5L308+557M308+557L321+569.5M321+569.5L334+555.5M334+555.5L354.5+587M334+555.5L354+543M308+557L302.5+542.5M302.5+542.5L287.5+549.5M282+531L297.5+591M297.5+591L307.5+556.5M302+543.5L282.5+530.5M266+564.5L298.5+591.5M298.5+591.5L287.5+591M287.5+591L265+563.5M265+563.5L270.5+669M270.5+669L294+646.5M294+646.5L265+563.5M282.5+611L270.5+670.5M287.5+591L315.5+707M315.5+707L293.5+645.5M315.5+707L270.5+669M270.5+669L290+753M290+753L315+707M315+707L322+832M321.5+831.5L350.5+735.5M350.5+735.5L315+705.5M350.5+735.5L345+706.5M345+706.5L381+671.5M381+671.5L425.5+659M381.5+672L378.5+564M354.5+585.5L381.5+671.5M354+585.5L345.5+707.5M345.5+707.5L319.5+595.5M319.5+595.5L320.5+569M319+594.5L355+585M319.5+595L297.5+591.5M289.5+600L333+646.5M289+599L345.5+708M345+707L404.5+758.5M404.5+758.5L381.5+671.5M425.5+659L416+733.5M416+733.5L385+793.5M385+793.5L350+734.5M384.5+793L322+833.5M322+833.5L259+780M259+780L290+754M290+754L322+833.5M258.5+780.5L251.5+703.5M251.5+703.5L257+574M251.5+703L271.5+670M256.5+573.5L231+645.5M231+645.5L233+722M233+722L259+780.5M328+630.5L353.5+585.5" fill="none" stroke-linecap="square" opacity="1" stroke-linejoin="miter"/>
<path d="M0+0L636+0L636+0L636+833.5L636+833.5L0+833.5L0+833.5L0+0L0+0Z" opacity="1" fill="none"/>
<path d="M307.975+476.056C314.414+476.056+308.476+485.022+311.62+494.453C315.226+505.271+324.915+512.771+334.883+518.041C337.095+518.594+338.809+520.081+340.704+520.713C344.944+522.126+349.877+523.152+353.967+525.484C356.86+525.484+381.268+535.317+385.074+537.507C386.622+537.983+390.7+539.627+391.944+540.369C392.72+541.286+400.098+544.828+401.677+545.904C406.819+547.189+415.804+554.764+419.234+558.881C424.659+564.808+429.256+573.206+430.628+580.98C430.857+582.281+431.173+587.411+432.059+588.136C433.644+589.433+436.549+589.675+438.509+590.942C439.22+591.119+440.078+591.37+440.799+591.705C442.505+593.436+444.846+594.33+446.582+595.751C448.233+597.102+449.477+599.027+451.677+600.293C452.626+601.362+453.968+602.737+454.349+604.301C455.6+605.458+456.404+606.503+457.402+607.926C457.402+608.291+457.593+608.48+457.593+608.881C459.579+610.877+460.264+613.419+461.448+615.617C465.307+622.783+466.784+630.715+468.185+638.652C468.628+641.162+468.357+649.931+468.738+651.075C468.926+651.639+469.551+651.97+470.379+652.392C471.105+653.265+472.5+654.025+473.051+655.064C474.817+655.619+476.194+657.539+477.25+658.594C485.973+667.318+492.097+677.87+495.971+689.491C502.127+707.96+503.351+728.649+497.116+747.354C495.841+751.181+495.076+755.205+493.128+758.823C491.755+761.372+490.244+763.907+488.891+766.419C488.248+767.613+487.891+769.211+487.021+770.274C479.673+779.254+471.139+788.126+460.837+794.377C459.904+795.432+458.9+795.76+457.593+796.476C455.116+798.883+448.041+802.207+444.807+804.11C444.148+804.248+443.857+804.375+443.089+804.491C442.267+805.45+440.702+805.781+439.654+806.591C433.775+808.642+428.613+811.626+422.994+813.499C393.863+823.209+364.34+828.067+333.643+829.682C320.654+830.366+307.629+829.026+294.712+828.346C289.422+828.068+284.187+826.82+278.395+826.82C278.005+826.24+252.879+823.127+249.387+821.094C241.151+821.094+218.722+811.977+209.692+809.262C209.451+808.812+209.051+808.69+208.357+808.69C207.95+808.095+207.349+808.091+206.83+807.545C205.9+807.293+205.227+807.22+204.54+806.591C203.84+806.591+203.284+806.49+202.631+806.209C200.662+804.247+197.314+804.376+194.998+802.583C193.343+800.897+190.679+800.395+188.509+799.148C186.491+797.143+183.308+795.879+180.876+794.377C180.125+793.792+179.305+793.496+178.586+792.85C178.081+792.85+177.731+792.759+177.25+792.468C176.057+791.186+174.496+790.333+172.86+789.415C170.719+787.303+163.354+782.507+162.173+780.446C160.868+780.057+160.508+778.804+159.311+778.155C156.867+775.778+154.483+773.368+152.498+770.942C151.819+770.112+151.159+768.118+149.96+767.468C149.88+767.01+144.47+758.811+143.662+757.354C141.003+754.588+136.746+744.41+135.532+740.77C134.283+737.022+132.962+733.251+131.715+729.51C126.813+714.805+128.79+693.586+136.028+679.682C136.028+678.644+138.294+674.879+138.891+673.766C139.728+673.082+139.934+672.248+140.456+671.61C145.313+665.673+150.603+659.131+157.784+655.255C158.477+655.081+158.828+654.828+159.311+654.301C159.941+653.852+160.657+653.723+161.219+653.155C162.974+652.717+165.17+651.862+166.754+650.865C166.754+650.548+166.879+650.293+167.326+650.293C167.982+647.668+167.19+643.804+167.326+641.228C167.586+636.297+169.7+622.064+172.67+617.85C174.775+615.716+175.681+612.336+177.25+609.644C178.763+608.187+179.544+606.49+180.876+604.682C182.876+604.042+183.982+601.23+185.36+600.102C187.733+598.161+189.978+596.659+192.899+594.949C194.989+592.882+198.842+591.287+201.868+590.751C201.868+585.487+203.549+575.85+206.639+571.476C207.417+570.859+207.689+569.949+208.357+569.186C209.354+568.074+209.869+566.16+210.704+565.14C212.142+563.383+214.104+561.731+215.418+559.453C216.779+558.17+220.621+554.583+222.479+554.11C224.001+552.539+225.769+551.861+227.441+550.961C229.417+549.897+231.514+548.331+233.643+547.621C238.307+546.066+242.925+544.645+247.727+543.537C250.639+542.865+277.02+540.153+284.692+538.842C278.569+526.215+282.273+509.761+288.471+498.251C289.701+495.967+291.589+493.942+293.089+491.514C294.011+488.74+296.911+486.028+299.196+484.262C301.97+481.597+304.139+477.589+307.975+476.056ZM304.731+485.217C303.453+486.92+301.942+488.076+300.532+489.415C298.714+492.513+296.109+494.78+294.559+497.659C288.389+509.118+283.993+521.496+288.337+534.53C293.874+551.14+313.91+548.203+309.311+553.823C308.204+555.176+306.198+554.453+304.826+554.11C299.581+552.798+295.253+550.458+291.086+547.049C290.071+546.219+288.44+543.327+287.097+543.327C286.679+543.327+272.677+545.683+271.105+545.961C263.135+547.367+254.903+547.282+246.925+548.69C236.78+550.48+225.247+555.935+218.089+563.842C216.142+567.15+213.495+569.308+211.372+573.251C208.214+579.115+205.53+590.268+207.67+596.686C208.777+600.008+210.417+602.797+212.059+605.846C213.244+608.048+215.177+610.746+217.135+612.697C219.431+614.022+221.05+616.409+222.86+618.232C224.987+619.453+226.734+621.046+228.357+622.373C232.058+625.401+236.674+627.85+240.857+630.102C277.465+649.814+340.411+655.213+379.673+642.125C397.938+636.037+422.968+625.48+426.773+603.919C427.438+600.147+426.685+596.345+426.486+592.564C426.383+590.606+426.772+588.597+426.658+586.667C426.38+581.932+424.381+576.604+422.154+572.468C420.099+568.652+417.979+565.203+415.227+561.839C405.899+550.438+375.131+537.328+360.895+532.583C353.01+529.955+344.705+528.284+337.307+524.301C333.582+522.295+329.847+520.313+326.124+518.308C324.035+517.184+322.245+515.551+320.437+514.072C311.59+506.833+305.303+497.345+305.303+485.217L304.731+485.217ZM432.784+593.423C431.882+594.549+433.361+601.568+429.54+612.316C428.761+613.301+427.932+614.739+427.631+615.942C427.006+616.621+426.621+617.506+425.914+618.041C425.587+619.575+424.461+620.573+423.433+621.476C422.151+623.23+420.923+624.617+419.425+626.056C417.784+628.867+409.722+634.248+406.639+635.598C405.92+636.244+405.336+636.632+404.349+636.934C375.655+651.567+347.86+655.4+316.086+653.728C309.595+653.386+303.006+653.182+296.582+652.049C288.581+650.637+280.668+648.746+272.67+647.335C261.925+645.439+244.313+636.477+240.799+635.598C237.861+633.843+230.615+630.802+228.395+628.537C227.836+627.486+226.164+626.963+225.475+626.4C223.227+624.561+220.943+622.757+218.662+620.522C213.141+616.572+210.595+611.466+207.593+608.308C207.033+607.255+206.625+606.563+206.257+605.446C204.139+601.782+203.343+600.659+202.25+596.285C199.944+597.017+195.66+597.764+194.044+599.339C190.14+601.577+186.433+605.767+183.776+609.014C182.957+610.015+182.43+611.249+181.257+612.316C180.623+613.489+180.28+614.578+179.349+615.369C178.45+618.589+176.693+621.103+175.761+623.9C172.295+634.299+171.179+646.334+173.853+657.03C174.185+658.36+175.02+662.685+176.105+663.652C176.859+666.015+178.399+667.866+178.967+670.14L179.54+670.14C180.63+671.848+181.195+673.586+182.593+674.911C190.268+687.526+203.391+695.586+215.818+702.278C217.116+702.976+218.81+703.405+219.998+704.682C228.478+707.884+236.398+711.059+244.578+713.785C274.504+723.761+326.473+727.389+357.383+721.934C361.384+721.228+365.425+720.751+369.425+720.045C373.726+719.286+377.941+717.958+382.231+717.201C386.001+716.536+390.049+715.549+393.681+714.339C409.688+709.003+414.645+706.786+429.921+699.339C431.022+698.502+434.163+697.053+435.074+696.285C436.255+695.408+437.054+694.247+438.509+693.804C439.197+693.174+439.724+692.512+440.608+692.278C442.463+691.064+444.751+689.043+446.334+687.507C446.538+687.112+446.644+686.743+447.097+686.743C449.025+685.493+450.108+683.202+451.677+681.591C452.438+681.211+452.775+680.691+453.395+680.255C455.556+677.118+456.949+673.548+459.502+670.904C459.502+669.061+460.733+667.458+461.162+666.171C461.951+663.802+462.389+661.316+462.822+658.862C464.146+651.358+463.778+643.069+462.46+635.598C462.028+633.153+461.172+630.785+460.742+628.346C460.559+627.306+460.503+626.101+460.17+625.102C458.761+620.876+456.591+616.957+454.482+613.041C453.127+610.523+451.451+607.276+449.196+605.064C448.652+604.548+448.081+603.945+447.67+603.346C447.274+603.142+446.906+603.036+446.906+602.583C446.511+602.379+446.143+602.272+446.143+601.82C442.644+599.755+436.857+594.123+432.784+593.423ZM167.517+655.446C165.41+656.019+163.476+657.732+161.944+658.556C151.577+664.138+143.31+674.046+138.719+684.759C126.285+713.772+139.571+747.849+158.357+770.808C164.153+777.893+172.216+782.291+177.25+786.934C178.232+787.451+178.887+787.651+179.54+788.461C180.46+788.939+181.263+789.253+181.83+789.988C184.169+791.339+186.634+792.116+188.509+793.995C190.267+794.989+203.642+801.629+204.731+801.629C205.309+802.204+206.15+802.583+207.021+802.583C207.54+803.129+208.141+803.133+208.547+803.728C212.802+804.95+216.296+806.877+220.074+808.136C225.466+809.934+230.937+811.452+236.334+813.251C239.778+814.399+243.677+815.254+247.25+815.884C247.951+816.008+248.502+816.51+249.177+816.629C255.288+817.707+261.373+819.219+267.46+820.293C276.637+821.912+291.791+823.853+301.009+824.339C311.572+824.895+330.644+825.079+341.086+824.53C352.317+823.938+367.577+822.178+378.586+820.236C380.462+819.905+382.234+819.233+384.12+818.9C392.67+817.391+415.669+812.095+423.242+808.499C426.287+806.69+430.762+806.428+433.357+803.919C434.513+803.647+435.273+802.965+436.41+802.965C439.773+800.997+448.173+797.634+450.532+795.331C452.683+794.095+455.156+793.217+456.83+791.514C457.65+791.355+458.346+790.954+458.929+790.56C461.584+788.946+464.352+786.626+466.563+784.453C467.294+784.095+467.679+783.906+468.089+783.308C469.496+782.444+471.802+781.067+472.288+779.491C473.521+778.82+474.115+777.797+474.96+776.82C475.407+776.82+475.532+776.565+475.532+776.247C479.73+774.148+488.538+757.438+490.055+752.888C491.091+749.78+492.379+746.755+493.414+743.652C494.287+741.033+494.46+737.975+494.941+735.255C497.657+719.859+495.863+703.823+490.971+689.148C489.5+684.735+486.715+679.69+484.502+675.579C483.874+674.413+482.817+673.449+482.212+671.858C480.326+668.66+477.41+665.438+474.769+662.888C474.206+662.63+474.074+662.4+473.815+661.934C473.321+661.52+472.989+661.116+472.67+660.598C471.109+659.726+470.413+658.286+468.662+657.736C468.104+660.248+468.172+662.392+467.479+664.472C466.553+667.249+464.855+670.101+464.082+673.194C463.399+673.987+463.208+675.055+462.555+675.865C461.79+676.823+460.991+677.542+460.647+678.728C459.864+679.121+454.628+686.404+453.204+687.888C452.238+688.371+443.817+695.803+442.364+696.991C439.895+699.012+436.308+700.263+433.929+702.583C429.537+705.197+425.179+707.604+420.379+709.262C417.857+710.81+415.428+711.739+412.555+712.697C408.745+714.889+404.691+715.961+400.799+717.259C374.114+726.154+341.872+730.397+313.795+728.919C309.862+728.712+305.897+729.126+301.963+728.919C285.556+728.055+272.955+725.113+257.212+722.335C243.623+719.937+225.848+713.139+213.757+706.629C212.345+705.868+209.943+705.432+208.547+704.11C207.846+703.473+207.205+703.317+206.639+702.583C206.112+702.583+205.685+702.522+205.685+702.01C203.973+701.045+201.932+700.475+200.532+699.148C199.525+698.358+198.487+697.812+197.67+696.858C196.304+696.57+195.397+695.489+194.616+694.568C191.613+692.15+188.947+689.751+186.219+687.125C183.276+685.402+178.525+678.028+176.334+675.35C175.427+674.242+175.086+672.656+173.815+671.476C170.773+666.391+170.549+661.063+168.662+655.636C168.449+655.518+168.471+655.586+168.471+655.446L167.517+655.446Z" opacity="1" fill="url(#LinearGradient)"/>
</g>
</svg>
