<?xml version="1.0" standalone="no"?>
<!DOCTYPE svg PUBLIC "-//W3C//DTD SVG 20010904//EN"
 "http://www.w3.org/TR/2001/REC-SVG-20010904/DTD/svg10.dtd">
<svg version="1.0" xmlns="http://www.w3.org/2000/svg"
 width="1579.000000pt" height="1500.000000pt" viewBox="0 0 1579.000000 1500.000000"
 preserveAspectRatio="xMidYMid meet">

<g transform="translate(0.000000,1500.000000) scale(0.100000,-0.100000)"
fill="#000000" stroke="none">
<path d="M7489 14931 c-118 -77 -373 -339 -522 -538 -335 -444 -515 -906 -534
-1368 -9 -227 27 -449 103 -632 19 -47 31 -89 27 -94 -11 -11 -153 -36 -302
-54 -69 -9 -164 -22 -211 -30 -47 -8 -168 -24 -270 -35 -102 -11 -261 -32
-355 -45 -93 -13 -222 -28 -285 -33 -271 -23 -660 -145 -946 -298 -229 -122
-403 -253 -580 -437 -170 -176 -285 -345 -374 -547 -86 -196 -150 -445 -157
-612 -3 -70 -10 -121 -17 -126 -6 -5 -42 -19 -81 -31 -97 -30 -253 -108 -360
-178 -563 -370 -931 -1058 -996 -1860 -7 -88 -8 -190 -3 -283 5 -80 9 -151 9
-159 0 -8 -69 -48 -161 -95 -427 -216 -760 -507 -1009 -881 -212 -319 -344
-671 -410 -1095 -22 -141 -31 -545 -16 -718 62 -703 351 -1436 840 -2128 139
-197 230 -303 417 -484 1208 -1173 3434 -1967 5969 -2130 1685 -108 3423 91
4845 556 1177 384 2061 886 2685 1525 140 143 206 219 354 402 18 23 43 62 55
87 12 25 40 77 63 115 152 261 290 606 371 931 144 572 163 1161 56 1744 -164
890 -623 1670 -1256 2133 l-68 49 0 112 c-1 432 -99 914 -270 1311 -254 595
-697 1044 -1193 1210 -117 39 -101 14 -142 225 -30 153 -126 450 -190 587
-119 254 -344 527 -586 710 -296 225 -890 538 -1505 794 -267 111 -668 259
-904 333 -550 173 -644 208 -860 316 -810 406 -1200 983 -1060 1568 24 99 25
124 6 161 -30 57 -108 67 -177 22z m-56 -468 c13 -351 176 -678 488 -978 334
-322 861 -602 1456 -776 268 -78 360 -108 573 -186 598 -221 1184 -492 1610
-746 139 -83 379 -267 492 -378 104 -103 193 -225 297 -408 33 -59 52 -100
138 -306 14 -33 41 -120 59 -193 32 -127 34 -143 34 -315 0 -100 6 -227 12
-282 16 -126 13 -248 -8 -348 -183 -897 -1426 -1625 -3146 -1842 -354 -44
-538 -56 -938 -62 -525 -7 -901 13 -1355 72 -1864 246 -3370 1034 -3777 1977
-71 165 -82 225 -75 438 8 268 45 425 153 650 180 376 486 670 919 881 227
111 492 198 665 219 91 11 422 54 580 75 63 8 187 24 275 35 385 47 687 94
749 117 l45 17 91 -97 c179 -189 369 -300 620 -363 131 -33 174 -32 211 5 57
58 29 137 -57 160 -181 48 -236 67 -314 106 -123 61 -202 116 -285 200 -323
322 -400 841 -209 1404 121 357 303 656 589 967 48 52 90 94 95 94 4 0 10 -62
13 -137z m5507 -4478 c170 -73 317 -173 472 -323 61 -59 137 -141 171 -182
146 -180 298 -450 382 -675 34 -90 52 -158 124 -460 44 -184 64 -392 65 -655
0 -141 -5 -287 -13 -345 -38 -302 -117 -547 -231 -716 -21 -31 -48 -76 -60
-100 -80 -158 -402 -486 -686 -700 -1022 -769 -2689 -1267 -4552 -1360 -269
-13 -1146 -7 -1367 10 -1378 106 -2499 376 -3446 828 -493 236 -892 507 -1205
818 -176 175 -230 240 -351 420 -172 258 -240 386 -303 576 -70 212 -98 377
-107 629 -5 165 -3 190 30 425 52 357 95 509 212 750 204 419 534 754 880 895
53 22 105 40 115 40 15 0 21 -13 30 -57 25 -122 80 -234 224 -458 229 -357
640 -718 1142 -1003 152 -87 509 -256 694 -330 775 -310 1641 -495 2630 -563
211 -14 853 -14 1080 0 256 17 481 39 685 67 1670 234 2879 925 3183 1819 48
141 62 225 72 440 11 223 14 245 34 245 8 0 51 -16 96 -35z m-11264 -2672 c25
-117 71 -283 101 -363 84 -224 163 -359 362 -614 196 -251 296 -356 527 -552
493 -421 1243 -803 2091 -1064 1280 -395 2816 -547 4288 -425 1646 137 3070
576 4075 1256 557 377 969 848 1140 1303 44 116 94 306 105 400 4 31 11 58 15
61 4 2 43 -25 86 -62 529 -449 915 -1175 1043 -1963 40 -247 46 -330 46 -640
-1 -317 -10 -437 -56 -695 -61 -339 -194 -728 -350 -1024 -101 -191 -259 -428
-359 -541 -579 -653 -1537 -1218 -2715 -1603 -970 -317 -2098 -512 -3270 -567
-283 -13 -998 -13 -1275 0 -2130 101 -4058 646 -5395 1525 -178 117 -388 275
-533 400 -157 135 -340 312 -348 337 -3 11 -37 59 -75 106 -81 101 -218 296
-304 432 -363 572 -582 1192 -636 1799 -14 166 -7 505 15 649 122 811 561
1434 1276 1811 63 33 121 61 127 61 7 0 15 -12 19 -27z"/>
</g>
</svg>
