<?xml version="1.0" standalone="no"?>
<!DOCTYPE svg PUBLIC "-//W3C//DTD SVG 20010904//EN"
 "http://www.w3.org/TR/2001/REC-SVG-20010904/DTD/svg10.dtd">
<svg version="1.0" xmlns="http://www.w3.org/2000/svg"
 width="1986.000000pt" height="2605.000000pt" viewBox="0 0 1986.000000 2605.000000"
 preserveAspectRatio="xMidYMid meet">

<g transform="translate(0.000000,2605.000000) scale(0.100000,-0.100000)"
fill="#000000" stroke="none">
<path d="M17004 26035 c4 -11 244 -641 533 -1400 l525 -1380 -16 -404 c-8
-223 -14 -406 -12 -408 5 -6 15 170 27 507 l11 305 -322 845 c-176 465 -322
854 -322 865 -1 11 -7 27 -14 35 -6 8 -83 202 -169 430 -215 567 -208 546
-197 535 17 -18 1484 -2426 1480 -2430 -2 -2 -248 320 -547 715 -469 622 -582
768 -544 708 4 -7 269 -359 588 -783 581 -769 630 -835 609 -822 -7 4 -110
-157 -279 -441 -147 -246 -274 -454 -281 -463 -17 -20 -18 -26 -1 -26 7 0 88
-46 181 -102 92 -57 169 -101 172 -99 2 2 -73 51 -166 107 -94 57 -170 108
-170 113 0 18 535 901 538 887 1 -8 -101 -640 -227 -1406 l-230 -1392 -336
-1270 c-184 -699 -334 -1276 -332 -1282 2 -11 -87 -79 -104 -79 -5 0 -9 10 -9
22 0 21 267 2472 274 2516 2 12 1 20 -3 17 -3 -4 -69 -581 -146 -1283 l-140
-1277 -85 -43 -85 -43 -6 108 c-4 59 -8 374 -9 698 -2 325 -5 716 -9 870 -4
194 -2 297 5 335 37 177 57 250 66 244 5 -3 -3 18 -18 47 -45 91 -275 531
-307 589 -16 30 -24 50 -16 43 26 -21 730 -276 739 -267 13 14 732 1395 728
1399 -2 2 -163 -302 -358 -675 -195 -373 -356 -678 -357 -676 -2 1 83 429 187
951 104 522 188 950 186 952 -5 6 1 38 -201 -977 -102 -514 -188 -941 -191
-949 -2 -8 -99 112 -228 286 l-223 299 -234 166 c-129 91 -452 319 -717 506
-266 188 -487 342 -491 342 -3 0 -465 504 -1026 1120 -560 615 -1021 1118
-1023 1116 -2 -2 356 -543 796 -1203 l799 -1198 793 -589 c436 -325 798 -599
805 -610 8 -12 87 -162 177 -333 l164 -313 -280 -1260 c-208 -932 -284 -1260
-294 -1260 -8 0 -12 -6 -9 -13 3 -8 1 -20 -5 -28 -8 -11 -8 -9 -4 6 8 27 35
61 -641 -800 l-596 -761 -550 -157 c-302 -87 -551 -157 -553 -155 -2 2 167
160 374 350 l377 346 305 619 306 618 -102 848 c-55 466 -104 850 -107 854 -4
3 -7 2 -7 -3 0 -5 -56 -378 -124 -830 l-124 -820 -304 -538 -303 -537 -744
-612 c-424 -349 -759 -618 -779 -625 -43 -15 -57 -27 -22 -19 24 6 23 5 -5
-18 -17 -13 -26 -24 -21 -25 4 0 23 13 40 28 23 20 63 36 137 56 57 15 317 86
578 157 260 71 478 129 485 129 6 -1 267 73 579 162 l569 163 610 778 c336
428 613 776 615 773 2 -2 -134 -255 -302 -563 -169 -307 -321 -583 -337 -613
-267 -489 -453 -827 -462 -837 -8 -9 -372 -45 -1136 -113 l-1125 -101 -264
-75 c-145 -41 -265 -73 -268 -71 -2 3 57 31 132 62 74 32 133 60 131 63 -4 3
-741 -314 -755 -325 -2 -2 -2 -5 0 -7 2 -1 110 44 239 100 129 57 236 104 238
104 2 0 0 -4 -3 -10 -3 -5 0 -8 7 -5 7 2 132 38 278 79 l265 75 515 46 c1315
117 1745 157 1751 163 3 4 113 203 244 442 130 239 246 444 256 456 11 11 17
23 15 25 -3 3 133 257 302 564 l307 560 100 50 c364 182 419 207 427 188 6
-16 7 -16 7 3 1 17 27 33 130 81 147 69 -18 -63 1395 1124 l599 504 256 807
c140 444 257 806 258 805 6 -7 -135 -1779 -143 -1786 -5 -5 -146 -118 -314
-252 -313 -249 -543 -432 -1540 -1226 -316 -252 -846 -674 -1177 -938 -331
-263 -601 -481 -599 -483 2 -2 485 380 1072 848 588 468 1405 1119 1816 1446
411 327 751 600 755 607 8 13 144 1767 140 1817 -1 24 -78 -206 -261 -780
-142 -448 -263 -827 -270 -842 -10 -24 -1794 -1533 -1803 -1524 -2 1 148 575
332 1275 l336 1272 234 1419 234 1420 -43 68 c-23 37 -389 634 -811 1327 -422
693 -775 1267 -783 1275 -13 13 -14 13 -8 -5z m-2224 -2889 l981 -1079 -197
-84 -197 -83 -31 21 c-20 14 -301 427 -805 1183 -425 638 -764 1152 -753 1141
11 -11 462 -506 1002 -1099z m3770 364 c6 -11 8 -20 6 -20 -3 0 -10 9 -16 20
-6 11 -8 20 -6 20 3 0 10 -9 16 -20z m-2214 -2096 c303 -351 550 -640 549
-642 -2 -2 -175 125 -386 283 -211 157 -549 408 -751 558 -202 149 -367 274
-368 277 0 8 383 169 395 166 5 -1 257 -290 561 -642z m162 151 l687 -485 217
-292 c120 -160 216 -293 214 -295 -4 -4 -645 231 -676 247 -19 10 -1144 1310
-1134 1310 3 0 314 -218 692 -485z m684 -3117 l4 -647 -244 -118 c-134 -65
-247 -119 -251 -121 -4 -1 101 485 233 1082 l241 1084 7 -316 c3 -174 8 -608
10 -964z m-1627 -12 c52 -438 95 -809 95 -824 0 -15 -135 -299 -303 -638
l-302 -612 -370 -340 c-203 -187 -371 -339 -372 -338 -7 6 288 869 305 893 10
15 151 261 311 546 l293 519 119 786 c65 433 119 793 119 801 1 64 22 -100
105 -793z m-1126 -2337 c-78 -233 -146 -429 -153 -435 -11 -12 -1134 -319
-1140 -313 -4 5 1426 1180 1431 1176 1 -2 -61 -194 -138 -428z"/>
<path d="M2940 24805 c-5 -14 -381 -932 -835 -2041 -454 -1109 -824 -2018
-822 -2020 2 -2 372 896 823 1996 450 1100 820 1996 822 1991 3 -9 -1067
-3734 -1093 -3806 l-15 -40 -269 -92 -269 -92 -10 32 -11 32 4 -30 c20 -138
297 -1839 304 -1870 5 -22 214 -573 464 -1225 250 -652 456 -1202 459 -1223 2
-20 1 -37 -3 -37 -5 0 -311 113 -681 251 -370 138 -692 258 -715 266 -38 13
-96 77 -545 606 -277 325 -513 603 -526 617 l-23 25 3 -25 c2 -14 8 -25 15
-25 6 0 15 -4 20 -9 5 -5 3 -6 -5 -2 -6 4 -12 5 -12 2 0 -3 209 -315 464 -693
297 -440 469 -687 478 -685 25 4 1527 -345 1544 -359 9 -7 21 -14 28 -15 7 -1
460 -285 1007 -631 l994 -630 1017 -459 c559 -252 1015 -460 1014 -461 -2 -2
-256 45 -941 177 -203 39 -617 118 -920 175 -302 58 -559 107 -569 109 -10 3
-15 1 -10 -3 5 -4 558 -112 1229 -240 671 -128 1245 -239 1275 -247 31 -7 99
-33 152 -56 l97 -43 441 -419 442 -419 -7 -211 -7 -211 147 -243 c81 -133 145
-248 142 -255 -2 -6 -55 -38 -117 -71 -82 -43 -114 -55 -120 -46 -6 9 -8 10
-12 0 -2 -8 -43 4 -128 39 -125 52 -125 52 -344 234 -121 101 -218 187 -217
193 1 5 -7 11 -17 14 -11 3 -233 182 -494 399 -322 268 -473 400 -472 412 0
13 -3 16 -11 9 -8 -7 -55 27 -151 107 -76 63 -213 177 -303 252 l-165 136
-313 15 -313 15 -9 -27 c-5 -14 -7 -29 -4 -31 3 -3 -5 -140 -17 -304 l-21
-299 234 -594 235 -595 360 -400 361 -400 293 -114 c161 -63 432 -168 602
-234 l309 -121 324 -294 c178 -161 321 -297 318 -302 -3 -4 -1 -10 3 -12 5 -1
46 -473 92 -1048 l83 -1045 -403 -1135 -403 -1135 30 -1200 31 -1200 396 -891
c218 -491 396 -901 396 -913 0 -11 5 -22 10 -22 6 -1 14 -2 19 -3 5 0 447
-372 981 -826 535 -454 980 -825 989 -824 9 0 451 282 983 627 532 345 973
626 979 625 6 -2 139 246 296 550 196 377 290 549 297 542 18 -18 25 -10 19
24 -5 29 19 80 180 392 l186 359 149 1165 c81 641 145 1170 141 1176 -5 5
-196 485 -425 1065 l-416 1054 -159 855 c-88 470 -164 880 -168 910 -5 30 -23
125 -39 210 -35 183 -36 207 -17 410 21 216 25 241 36 235 5 -4 9 -2 9 4 0 6
188 177 418 381 229 204 433 386 452 404 62 57 214 191 245 216 17 14 149 70
293 125 151 58 262 105 262 113 0 7 148 197 328 422 l328 410 78 446 78 446
118 197 117 196 16 360 c9 198 15 361 14 362 -2 1 -137 -5 -302 -13 -165 -8
-321 -14 -347 -12 -25 2 -46 -1 -45 -5 1 -5 -166 -114 -370 -242 -205 -128
-373 -230 -373 -226 0 3 -6 -6 -14 -21 -28 -53 -850 -1090 -873 -1101 -13 -6
-19 -13 -14 -17 6 -3 -58 -93 -142 -200 l-153 -195 -199 -32 -200 -32 -64 64
-64 63 95 154 96 153 16 259 c9 142 14 261 11 264 -3 3 -5 -1 -5 -9 0 -8 -3
-10 -8 -4 -4 6 -18 16 -30 23 -13 7 -224 175 -469 374 -244 198 -446 358 -448
356 -2 -2 202 -170 453 -373 251 -203 450 -371 442 -372 -17 -3 -1000 -103
-1011 -103 -22 0 -14 96 36 451 30 217 55 397 55 400 0 3 6 7 13 8 32 5 1135
31 1229 28 l106 -2 -163 -379 c-185 -428 -180 -415 -167 -401 6 6 80 174 167
375 86 201 163 372 171 381 8 9 11 19 7 24 -5 4 -2 5 4 1 8 -4 141 113 363
321 l351 328 1255 437 c691 240 1259 440 1262 444 4 4 0 5 -8 2 -8 -3 -577
-200 -1264 -439 l-1249 -434 -327 -305 c-398 -371 -368 -346 -380 -334 -5 5
-25 231 -45 502 l-37 493 312 859 312 859 -343 937 c-189 515 -345 930 -347
922 -2 -8 65 -407 148 -887 83 -479 151 -882 152 -894 1 -18 -106 -308 -157
-422 -7 -16 -142 -357 -300 -756 l-287 -726 -407 -459 -406 -459 -183 -75
-182 -75 -160 -144 c-88 -80 -160 -146 -160 -148 0 -10 22 8 152 126 78 71
143 129 144 128 3 -3 274 -647 286 -677 7 -20 11 -22 18 -10 6 8 10 12 10 8 0
-3 20 -82 45 -174 24 -92 43 -170 40 -172 -2 -2 -149 87 -327 199 -178 111
-426 267 -553 347 -126 79 -241 156 -254 170 l-24 27 239 5 239 6 -242 2
c-234 2 -243 3 -253 23 -7 11 -14 18 -17 15 -3 -3 0 -12 7 -21 11 -13 -7 -15
-168 -15 -106 0 -182 4 -184 10 -1 5 -65 79 -142 164 l-138 155 -204 68 c-112
37 -204 72 -204 78 0 6 -13 15 -29 20 -22 7 -144 147 -460 522 l-430 512 -26
88 c-15 48 -135 441 -266 872 -132 431 -242 796 -245 810 -3 14 -10 35 -15 46
-7 15 44 304 201 1127 115 608 210 1110 210 1115 -1 19 -36 -65 -435 -1032
-244 -593 -411 -1011 -406 -1015 11 -6 603 -2271 596 -2278 -2 -2 -80 43 -172
101 -92 57 -178 109 -189 115 -12 6 -353 412 -759 903 -629 759 -739 897 -746
933 -5 22 -79 597 -165 1276 -87 679 -160 1238 -164 1243 -3 4 -35 -309 -69
-695 -35 -387 -84 -936 -110 -1220 l-46 -518 633 -966 c349 -531 632 -967 629
-970 -2 -3 -94 7 -204 21 -110 14 -211 24 -224 24 -19 -1 261 -40 441 -62 20
-2 45 -9 56 -15 22 -12 536 -341 544 -349 7 -6 -194 -403 -204 -403 -6 0 -301
131 -656 292 -1008 456 -1300 587 -1375 621 -77 34 -118 57 -112 64 3 2 284
-30 627 -72 342 -42 629 -75 638 -73 9 2 -273 38 -627 82 l-644 78 -196 171
c-109 95 -436 380 -727 633 l-529 462 -298 1042 c-165 573 -297 1043 -295
1044 1 2 135 72 296 156 161 84 291 154 288 157 -2 3 -14 -1 -26 -7 -13 -7
-26 -8 -33 -2 -7 4 -166 75 -355 157 -188 82 -339 152 -335 155 5 4 181 88
393 188 212 99 535 251 718 337 184 86 336 154 338 152 3 -3 -151 -210 -343
-460 -286 -375 -355 -459 -386 -473 -21 -10 -40 -22 -44 -27 -3 -5 8 -2 25 7
16 8 32 12 36 9 3 -4 12 1 19 10 12 17 1090 608 1115 611 19 3 34 33 38 70 2
26 406 1605 450 1762 l14 51 498 395 c1348 1070 1524 1209 1527 1206 3 -2
-360 -402 -804 -888 l-809 -885 -436 -819 c-240 -450 -435 -821 -433 -823 3
-2 199 364 438 813 l434 816 828 906 c455 498 827 912 827 920 0 10 -6 9 -24
-5 -142 -105 -2105 -1670 -2105 -1678 -1 -12 -724 -1375 -757 -1427 -14 -21
-32 -38 -42 -38 -10 0 -23 -5 -30 -12 -23 -23 -1507 -715 -1511 -704 -3 6 -91
409 -196 896 -129 594 -195 884 -203 883 -7 -2 -12 -1 -12 2 0 2 250 872 556
1932 305 1060 557 1945 559 1966 4 43 -1 48 -15 12z m3770 -1839 c0 -2 -8 -10
-17 -17 -16 -13 -17 -12 -4 4 13 16 21 21 21 13z m-2310 -2552 c-128 -494
-236 -907 -240 -919 -6 -15 -168 -109 -545 -314 -295 -161 -538 -291 -540
-289 -4 4 682 901 702 916 9 6 22 12 27 12 6 0 85 -76 176 -168 91 -93 145
-146 120 -118 -25 28 -96 103 -157 167 -62 64 -113 120 -113 125 0 5 173 335
385 733 212 398 385 727 385 730 0 10 23 32 28 27 2 -2 -101 -408 -228 -902z
m-2532 419 c6 -27 93 -432 194 -900 146 -681 186 -853 198 -853 13 0 655 -275
697 -299 11 -6 -61 -48 -246 -144 -143 -76 -265 -137 -270 -137 -5 0 -12 6
-14 13 -3 6 -6 3 -6 -9 -1 -11 -11 -25 -24 -31 -20 -9 -71 15 -411 199 -214
115 -390 207 -392 205 -2 -2 173 -99 390 -216 388 -209 395 -212 419 -196 24
15 26 15 31 -2 3 -10 134 -468 291 -1018 157 -550 291 -1014 298 -1031 8 -23
215 -208 717 -644 388 -337 714 -622 725 -633 l20 -20 -25 15 c-14 8 -124 78
-245 155 -121 77 -490 311 -820 520 -946 599 -880 555 -882 583 -1 14 -4 45
-8 70 -3 25 -21 475 -40 1000 -20 525 -37 966 -39 980 -9 70 -3 -145 29 -994
20 -511 34 -936 33 -944 -2 -11 -849 2188 -905 2349 -12 37 -4 113 117 1027
71 543 130 991 130 995 0 4 6 7 14 7 9 0 18 -18 24 -47z m-52 0 c-3 -21 -60
-450 -126 -952 -103 -782 -130 -971 -130 -915 0 6 -63 395 -139 865 -77 470
-138 855 -136 857 5 6 509 179 523 181 10 1 12 -9 8 -36z m3539 -2873 c85
-668 160 -1226 166 -1240 6 -14 125 -344 264 -735 139 -390 258 -723 265 -740
6 -16 7 -25 2 -20 -33 34 -1066 1625 -1070 1646 -4 29 196 2306 206 2329 7 20
-9 144 167 -1240z m2049 -55 c-112 -588 -202 -1078 -200 -1087 2 -10 2 -18 0
-18 -15 0 -397 205 -400 215 -5 11 796 1969 802 1962 1 -1 -90 -483 -202
-1072z m5116 -369 l322 -878 -304 -833 c-166 -458 -304 -832 -305 -831 -2 1
13 290 33 642 l36 639 88 222 87 221 -148 859 c-82 472 -148 863 -148 868 0
14 -12 48 339 -909z m-11965 -56 l488 -575 669 -249 c367 -137 666 -251 664
-253 -2 -2 -295 64 -652 146 -357 82 -675 155 -707 162 -32 7 -64 17 -72 23
-16 13 -905 1331 -905 1343 0 11 -19 32 515 -597z m6662 -747 c7 -132 44
-1446 41 -1448 -2 -2 -102 375 -222 838 -120 463 -221 848 -224 855 -2 8 87
-34 199 -92 l204 -105 2 -48z m293 -919 l253 -830 424 -504 c232 -277 423
-505 423 -508 0 -19 -123 54 -613 360 -309 193 -570 358 -579 367 -10 10 -42
117 -81 271 l-65 255 -21 715 c-12 393 -21 729 -20 745 l0 30 13 -35 c7 -19
127 -409 266 -866z m-1225 -14 c400 -483 731 -878 736 -877 14 4 379 -228 379
-241 0 -7 5 -10 10 -7 8 5 1112 -675 1106 -682 -1 -1 -298 78 -660 175 -659
177 -660 177 -672 207 l-13 30 3 -30 c2 -16 11 -46 20 -67 18 -41 286 -831
283 -834 -1 -1 -137 126 -301 282 l-299 284 -113 47 -112 47 99 199 c65 129
104 197 113 194 6 -3 70 -43 142 -89 155 -101 165 -107 144 -86 -22 23 -853
554 -879 563 -15 4 -53 53 -105 133 l-82 127 -264 740 c-144 407 -265 746
-267 753 -3 6 -3 12 0 12 2 0 332 -396 732 -880z m5969 -209 l-37 -642 37
-491 c20 -270 35 -493 32 -495 -2 -2 -99 64 -215 148 -167 121 -208 155 -199
166 8 10 7 12 -5 7 -19 -7 -17 -14 -88 308 l-52 238 279 704 c153 387 280 703
282 701 2 -2 -13 -292 -34 -644z m-469 -1065 c30 -137 54 -251 52 -252 -2 -2
-201 -84 -443 -182 -336 -137 -441 -176 -447 -166 -5 9 115 152 380 450 323
365 388 434 395 418 4 -10 33 -131 63 -268z m-4255 -281 c157 -42 445 -119
640 -171 195 -52 369 -100 385 -107 31 -12 37 -14 68 -16 9 0 17 -6 17 -11 0
-7 -7 -7 -22 0 -21 10 -20 9 2 -9 25 -20 25 -20 5 -39 -48 -45 -383 -322 -390
-322 -4 0 -13 -7 -20 -16 -10 -14 -74 33 -491 363 -263 208 -486 383 -494 387
-39 22 45 -46 480 -389 256 -201 470 -374 477 -383 9 -13 -3 -149 -56 -629
-37 -337 -69 -615 -73 -618 -3 -3 -71 105 -153 239 l-147 244 7 214 7 213
-137 129 -138 129 -139 411 c-77 226 -141 424 -143 439 -3 22 0 27 13 23 9 -3
145 -39 302 -81z m7260 -9 c-25 -24 -126 -119 -225 -211 l-179 -167 -95 191
c-52 104 -93 192 -91 195 3 2 140 11 305 19 165 8 307 15 315 16 8 0 -5 -19
-30 -43z m53 -291 c-8 -181 -16 -331 -18 -333 -3 -4 -231 110 -363 181 l-83
44 236 222 c131 122 239 221 240 219 2 -2 -3 -151 -12 -333z m-2777 158 l218
-158 -235 -6 c-402 -11 -1044 -19 -1034 -14 28 15 812 333 822 334 6 1 109
-70 229 -156z m2217 -58 c53 -107 93 -195 89 -195 -5 0 -69 -236 -142 -525
-75 -295 -138 -525 -144 -525 -11 0 -641 955 -641 971 0 7 720 465 735 468 3
1 49 -87 103 -194z m-9078 -96 c132 -5 250 -12 263 -15 12 -2 158 -117 323
-255 228 -190 299 -254 295 -267 -38 -107 -372 -900 -377 -894 -3 4 -101 240
-216 524 l-210 518 78 129 c116 195 131 221 125 221 -3 0 -51 -77 -107 -170
-56 -94 -106 -169 -110 -168 -5 2 -98 80 -208 173 -149 127 -200 176 -201 193
0 27 1 27 345 11z m3691 -106 l200 -68 138 -153 c76 -84 136 -155 134 -158 -3
-2 -69 3 -147 11 -79 8 -160 14 -180 14 -20 -1 42 -9 137 -19 95 -10 175 -20
177 -22 2 -2 -285 -268 -637 -591 -353 -323 -643 -586 -644 -584 -1 1 29 280
66 620 50 458 72 623 84 641 13 20 22 24 48 20 91 -12 692 -65 711 -62 12 2
-146 19 -350 38 -205 19 -373 37 -372 40 0 3 88 79 196 168 141 118 201 162
214 159 11 -3 17 -1 13 4 -9 15 4 11 212 -58z m-3821 -123 c99 -84 184 -157
189 -161 5 -4 -90 -57 -210 -118 -121 -60 -213 -110 -206 -110 7 -1 98 42 203
95 105 52 192 94 194 92 1 -2 7 -259 14 -573 6 -313 14 -617 17 -675 3 -58 3
-102 -1 -98 -4 4 -109 263 -232 575 l-224 568 16 225 c25 366 25 363 44 347 9
-8 97 -83 196 -167z m5852 141 c-3 -14 -29 -198 -58 -408 -29 -211 -56 -383
-59 -383 -3 0 -69 150 -146 333 -91 214 -138 336 -132 344 8 10 327 143 344
143 3 0 2 -5 -2 -12 -5 -8 -2 -9 10 -5 10 4 20 7 22 7 3 0 2 4 -1 10 -4 6 1 7
10 3 12 -4 15 -14 12 -32z m3683 -156 c117 -60 214 -115 217 -121 4 -12 -215
-384 -227 -384 -4 0 -54 134 -110 298 -57 163 -105 303 -108 311 -7 18 -16 22
228 -104z m-125 -222 l107 -311 -78 -443 -77 -443 -330 -413 c-182 -227 -332
-411 -334 -409 -2 2 120 491 271 1087 151 596 285 1124 297 1172 12 49 25 85
29 80 4 -4 55 -148 115 -320z m-736 -202 c171 -261 309 -476 307 -478 -5 -6
-1468 -135 -1473 -130 -2 3 154 207 348 453 467 595 500 636 504 632 1 -2 143
-216 314 -477z m-8254 -269 c115 -283 208 -520 208 -528 0 -8 4 -14 9 -14 4 0
8 6 8 13 0 11 363 896 378 923 4 7 186 -136 479 -380 260 -215 472 -393 472
-396 1 -3 -65 -15 -146 -25 -82 -11 -139 -21 -128 -23 11 -1 81 6 155 17 107
15 138 16 150 6 8 -6 112 -92 231 -191 119 -98 225 -184 235 -190 15 -9 -18
-39 -242 -219 -142 -115 -264 -212 -270 -217 -8 -5 -24 15 -48 62 -33 62 -266
346 -266 323 0 -4 50 -64 110 -133 72 -83 122 -150 147 -200 21 -41 41 -77 44
-80 9 -8 800 -1442 797 -1445 -2 -1 -131 115 -288 257 -157 143 -299 272 -315
287 -26 23 -70 131 -275 669 -134 353 -246 640 -248 638 -2 -3 105 -289 237
-637 133 -348 240 -636 239 -640 -2 -4 -264 95 -584 219 l-581 227 -359 398
c-197 219 -360 402 -362 406 -2 5 48 12 110 15 208 11 1217 28 1252 22 20 -4
37 -2 41 4 4 6 -5 10 -22 10 -15 0 -225 55 -467 122 -343 96 -432 124 -410
129 16 4 91 15 166 25 76 10 136 20 133 22 -6 7 -348 -39 -358 -47 -4 -4 176
-58 400 -121 225 -62 417 -116 428 -121 13 -5 -9 -8 -60 -9 -44 0 -332 -7
-640 -14 -308 -8 -562 -12 -564 -10 -7 7 -34 1341 -27 1359 4 11 10 15 15 9 5
-5 102 -240 216 -522z m4225 432 c0 -13 -1143 -1904 -1148 -1899 -2 2 177 432
399 955 l403 950 173 0 c95 0 173 -3 173 -6z m31 -19 c-1 -3 7 -13 17 -23 9
-10 188 -316 397 -679 209 -364 382 -660 384 -658 2 2 -164 296 -369 652 -205
356 -375 652 -378 656 -7 15 26 -6 585 -357 l540 -340 102 -390 c55 -215 121
-466 145 -559 24 -92 41 -169 37 -171 -3 -2 -152 108 -330 245 -179 137 -327
249 -331 249 -3 0 -167 -331 -365 -735 -198 -403 -361 -732 -363 -730 -2 2
-19 572 -37 1267 -19 695 -36 1340 -38 1433 -3 94 -3 164 0 158 2 -7 4 -15 4
-18z m-410 -27 c-22 -57 -553 -1303 -557 -1307 -3 -4 -553 132 -653 161 l-45
14 585 534 c321 294 604 554 629 577 25 23 46 43 47 43 1 0 -1 -10 -6 -22z
m430 -1405 c25 -952 34 -1420 27 -1424 -7 -4 -7 -9 1 -13 7 -5 7 -14 0 -29 -9
-20 -756 -553 -764 -545 -2 2 -85 169 -184 372 -125 255 -179 375 -175 389 4
12 2 17 -4 13 -7 -4 -13 7 -17 26 -32 178 -113 653 -111 655 1 1 280 -205 620
-458 340 -253 620 -458 622 -456 3 3 -342 262 -1034 775 -114 85 -208 155
-210 157 -2 2 261 441 583 977 323 535 589 977 592 981 3 5 7 6 10 3 3 -3 23
-644 44 -1423z m2074 1124 c-11 -8 -213 -112 -450 -231 -236 -120 -434 -222
-440 -228 -5 -6 204 98 466 231 366 185 479 238 487 229 7 -9 5 -88 -5 -252
l-15 -239 -91 -144 c-51 -80 -100 -157 -109 -173 -9 -16 -106 -170 -214 -342
-108 -172 -208 -330 -221 -351 -14 -22 -26 -37 -28 -35 -2 2 -74 273 -160 603
-86 330 -170 653 -187 718 -17 64 -29 119 -26 122 2 3 162 21 354 41 192 19
403 41 469 48 66 8 136 14 155 15 32 1 33 0 15 -12z m2225 -335 c0 -7 -949
-523 -992 -540 -4 -2 -8 5 -8 15 -1 17 -1 17 -14 1 -7 -10 -16 -18 -20 -18 -4
0 -121 71 -259 158 -282 177 -286 180 -272 164 6 -6 127 -85 269 -174 143 -90
259 -167 259 -171 0 -21 -918 -1976 -924 -1970 -4 5 -28 85 -54 178 l-47 170
70 266 71 265 6 270 7 269 -146 248 c-81 136 -149 253 -152 260 -4 10 41 21
182 43 146 22 192 33 205 48 10 10 84 103 165 206 l146 187 377 33 c207 18
531 48 721 65 391 37 410 38 410 27z m18 -24 c-3 -7 -76 -294 -163 -638 -87
-344 -161 -628 -164 -633 -4 -4 -157 159 -340 363 -184 203 -336 370 -339 370
-8 0 11 -21 350 -397 206 -229 325 -368 322 -377 -6 -16 -9 -18 -297 -127
l-208 -79 -122 -110 -122 -110 -3 48 c-5 89 65 1143 77 1155 12 13 990 544
1005 546 4 1 6 -5 4 -11z m-2303 -799 c-31 -118 -63 -237 -71 -264 l-14 -50
-226 -49 c-125 -27 -229 -44 -234 -40 -5 5 84 155 196 334 113 179 219 347
235 374 l31 49 70 -70 70 -70 -57 -214z m-3330 200 c176 -45 321 -82 322 -83
4 -4 -253 -604 -268 -625 -13 -20 -27 3 -238 384 -123 223 -226 404 -228 401
-2 -2 98 -187 222 -411 124 -224 225 -408 223 -410 -2 -1 -677 34 -843 45 -40
2 -39 13 55 337 l92 320 112 59 c141 75 163 83 201 72 17 -4 174 -45 350 -89z
m-772 10 c53 -23 97 -45 97 -50 0 -12 -168 -596 -181 -629 -7 -19 1 -118 30
-367 l40 -341 82 -213 c101 -266 112 -296 101 -284 -12 14 -813 1467 -810
1470 2 1 124 -61 272 -137 148 -76 271 -137 273 -134 2 2 -117 65 -264 141
-147 75 -272 140 -276 145 -7 6 517 439 533 440 3 0 49 -18 103 -41z m5371
-26 c-3 -38 -20 -310 -38 -606 -18 -295 -35 -538 -37 -540 -2 -2 -188 -168
-414 -368 -225 -201 -415 -368 -422 -372 -7 -4 30 81 81 190 51 109 256 550
456 981 201 430 368 782 372 782 4 0 4 -30 2 -67z m-1048 -234 l147 -250 -7
-267 -7 -267 -68 -255 -68 -255 -17 55 c-8 30 -74 261 -145 514 l-130 458 65
247 c72 271 71 271 78 271 2 0 71 -113 152 -251z m-984 -229 c98 -74 176 -138
175 -142 -3 -11 -1344 -988 -1356 -988 -6 0 -11 4 -11 9 0 5 129 271 286 592
158 321 320 653 360 737 l74 153 148 -113 c81 -62 227 -174 324 -248z m812
-508 c71 -251 131 -464 133 -472 3 -8 -55 46 -129 121 -152 155 -136 131 29
-43 95 -100 114 -126 127 -170 52 -184 99 -354 99 -363 -1 -5 -11 -119 -24
-252 l-24 -243 -30 -10 c-312 -111 -1368 -470 -1372 -466 -7 6 360 505 372
506 6 0 159 264 340 587 182 322 335 591 341 597 9 9 -42 78 -208 282 -234
287 -238 291 -238 281 0 -3 71 -93 158 -199 86 -106 185 -228 220 -270 l63
-77 -337 -595 -336 -595 -47 31 c-25 17 -116 80 -201 138 -183 126 -210 144
-210 137 0 -2 99 -73 221 -157 154 -106 217 -155 211 -163 -5 -7 -91 -123
-191 -259 l-181 -248 -105 -282 c-58 -155 -108 -285 -113 -289 -11 -11 -762
-53 -771 -43 -5 5 -31 70 -59 144 -115 309 -111 301 -137 294 -18 -4 -84 35
-313 188 l-290 194 104 224 c58 124 108 228 112 232 4 4 178 -36 386 -89 221
-56 381 -92 384 -86 4 5 171 74 372 152 201 79 369 147 373 151 4 4 -81 65
-190 136 -109 70 -271 176 -360 234 l-162 107 327 238 c180 132 484 354 676
495 l350 255 225 51 c124 29 237 52 251 53 25 1 27 -7 154 -457z m-3273 345
c-10 -9 -11 -8 -5 6 3 10 9 15 12 12 3 -3 0 -11 -7 -18z m-503 -90 c226 -13
413 -25 416 -27 4 -4 -592 -1081 -606 -1096 -2 -2 -46 104 -96 237 l-92 240
-35 297 c-19 163 -37 316 -40 340 -6 41 -6 43 18 37 14 -4 209 -16 435 -28z
m538 -358 l58 -337 -165 -223 c-137 -186 -169 -224 -188 -223 -21 1 -22 -1 -8
-11 14 -10 15 -15 3 -30 -13 -18 -22 -18 -212 -6 -198 13 -220 19 -208 51 14
37 610 1097 626 1113 10 10 18 23 19 30 2 41 25 -69 75 -364z m244 -715 c99
-202 180 -370 180 -375 0 -7 -669 276 -682 289 -6 6 309 450 320 452 1 0 84
-165 182 -366z m1358 -57 c227 -148 349 -233 340 -238 -7 -3 -164 -66 -348
-139 -184 -72 -348 -138 -363 -145 -26 -13 -56 -7 -380 75 -193 50 -356 90
-362 90 -6 0 -19 6 -29 13 -17 12 20 40 363 280 209 147 385 267 391 267 9 0
14 15 11 33 -2 11 -22 24 377 -236z m-1515 -191 c295 -126 347 -151 347 -173
0 -20 -706 -1523 -714 -1520 -9 3 -366 1060 -366 1084 0 6 86 174 191 373 106
198 190 362 188 364 -2 2 -92 -162 -199 -364 -107 -203 -198 -366 -201 -362
-9 10 -63 721 -56 728 3 4 97 1 207 -6 199 -13 201 -13 222 7 15 16 26 19 42
13 12 -4 164 -69 339 -144z m3367 -375 c0 -5 14 -81 30 -169 17 -89 30 -167
30 -175 0 -16 -148 -247 -159 -247 -3 0 -199 -15 -436 -34 -236 -19 -443 -33
-458 -31 -40 5 -416 167 -421 182 -3 6 0 10 7 7 11 -4 1374 460 1386 471 8 8
21 5 21 -4z m-3937 -766 l165 -500 87 -1675 c47 -921 87 -1686 88 -1700 1 -17
-93 -181 -286 -499 -159 -260 -286 -475 -284 -477 2 -2 133 211 292 473 251
414 290 473 297 452 4 -13 136 -577 293 -1254 157 -676 289 -1241 293 -1254 7
-20 67 85 392 683 211 388 386 704 389 701 8 -9 218 -3809 211 -3829 -5 -15
-8 -16 -12 -5 -34 88 -962 2387 -967 2397 -5 8 -162 -118 -491 -393 -266 -223
-487 -402 -491 -398 -10 11 -218 2316 -218 2413 0 41 38 959 84 2040 l83 1965
-54 660 c-58 713 -58 724 -45 710 5 -6 83 -235 174 -510z m1004 308 c155 -104
283 -191 283 -194 0 -3 -62 -34 -137 -69 -231 -107 -284 -132 -280 -136 2 -3
100 41 218 96 117 55 219 98 227 95 7 -2 10 0 7 5 -3 6 0 10 7 10 9 0 43 -76
91 -204 l78 -205 -153 -525 c-83 -289 -155 -526 -158 -526 -4 0 -111 404 -238
898 -128 493 -235 907 -238 920 -4 12 -3 22 2 22 5 0 136 -84 291 -187z m-61
-772 c124 -480 223 -875 221 -878 -3 -2 -217 172 -476 387 -388 322 -469 394
-462 408 7 14 343 733 444 952 30 65 30 65 38 35 5 -16 110 -423 235 -904z
m3228 -38 c91 -490 173 -907 181 -925 28 -60 744 -1882 741 -1885 -2 -2 -306
619 -676 1379 -370 761 -677 1388 -682 1395 -6 7 13 139 51 352 34 187 61 343
61 346 0 3 10 5 23 6 12 0 31 5 42 10 15 7 12 8 -12 3 -18 -3 -33 -2 -33 2 0
10 131 216 135 212 2 -2 78 -404 169 -895z m-1449 687 c104 -44 191 -83 193
-84 1 -2 -132 -87 -296 -190 l-299 -186 -198 -215 -198 -214 -36 31 c-20 17
-110 103 -200 190 -108 104 -157 158 -145 158 67 -1 750 43 755 49 4 3 47 116
97 251 50 135 95 258 101 274 7 16 17 26 24 23 6 -3 97 -42 202 -87z m1106
-37 c-52 -89 -880 -1348 -887 -1347 -7 1 -604 909 -604 919 0 5 574 363 591
369 8 3 160 17 339 31 179 14 368 29 420 34 154 14 152 14 141 -6z m-59 -377
l-58 -329 -359 -322 c-330 -296 -420 -366 -368 -285 398 615 839 1285 841
1276 1 -6 -24 -159 -56 -340z m-1134 -529 c180 -276 287 -450 279 -453 -21 -7
-1031 -273 -1033 -271 0 1 6 172 14 380 l14 378 47 44 c25 24 118 122 206 218
118 128 163 171 171 163 6 -6 142 -213 302 -459z m-739 -16 c-1 -160 -27 -697
-34 -713 -5 -12 -14 -16 -29 -13 -17 4 -293 48 -568 91 -82 13 -88 -28 82 561
l154 531 198 -190 198 -191 -1 -76z m3204 -2557 c6 7 7 4 3 -7 -3 -10 10 -49
31 -92 20 -41 35 -76 33 -79 -4 -3 -869 -248 -1278 -361 -34 -10 -65 -15 -68
-13 -5 6 -93 3070 -94 3253 l0 90 683 -1401 c428 -881 685 -1398 690 -1390z
m-4644 1971 c132 -379 241 -696 241 -705 1 -22 -344 -1730 -348 -1725 -2 2
-39 684 -82 1517 -43 832 -81 1556 -84 1608 l-5 95 18 -50 c10 -27 127 -360
260 -740z m3261 725 c0 -78 77 -2890 84 -3075 3 -77 2 -133 -3 -125 -4 8 -189
594 -411 1302 -222 708 -408 1284 -413 1281 -5 -3 -4 4 2 14 6 11 7 24 3 28
-4 5 -2 5 4 2 7 -4 166 133 365 312 195 176 357 320 362 320 4 1 7 -26 7 -59z
m-3479 35 c9 0 920 -758 939 -780 14 -17 11 -18 -70 -12 -47 4 -117 7 -156 7
l-72 0 -318 389 c-175 214 -320 388 -322 386 -2 -2 138 -177 312 -389 l316
-386 30 -121 c17 -67 29 -124 26 -126 -3 -3 2 -22 9 -42 18 -44 766 -3142 762
-3154 -3 -10 -542 1499 -796 2230 -99 287 -181 537 -181 555 0 18 -4 28 -8 21
-7 -12 -512 1416 -505 1430 3 4 10 4 16 0 7 -4 15 -8 18 -8z m-408 -2280 l-86
-2030 105 -1155 c58 -635 105 -1156 104 -1157 -1 -1 -177 391 -390 871 l-388
873 -30 1199 -31 1199 387 1090 c404 1140 407 1147 412 1143 1 -2 -36 -917
-83 -2033z m3083 1640 c-8 -21 -765 -1358 -775 -1367 -4 -4 -65 242 -135 547
-71 306 -126 558 -123 561 6 6 1005 272 1026 273 8 1 11 -5 7 -14z m29 -57
c-7 -72 -255 -3641 -255 -3665 0 -9 -2 -14 -4 -12 -4 3 -131 546 -431 1843
l-14 59 30 -29 c40 -39 37 -18 -5 26 -31 32 -37 50 -80 237 l-46 203 397 700
c218 385 400 700 405 700 5 0 6 -28 3 -62z m449 -1283 l411 -1308 -340 -331
c-187 -182 -434 -423 -548 -534 -115 -112 -210 -202 -213 -200 -4 5 245 3628
252 3666 3 13 10 22 16 20 7 -3 197 -593 422 -1313z m-1871 1120 c187 -29 341
-56 343 -58 5 -5 354 -1501 351 -1504 -1 -1 -286 301 -632 672 l-630 673 -32
118 c-17 66 -32 130 -32 143 l-1 24 148 -7 c101 -5 253 -24 485 -61z m73 -916
c340 -364 622 -667 625 -673 10 -16 450 -1917 447 -1927 -2 -5 -381 720 -843
1611 -461 891 -841 1618 -843 1616 -2 -2 378 -739 844 -1638 l847 -1633 78
-410 c44 -225 78 -418 77 -429 -2 -14 -137 94 -543 437 l-539 456 -383 1583
c-330 1362 -401 1668 -388 1668 1 0 281 -298 621 -661z m-702 -229 c90 -256
166 -477 169 -491 6 -25 -20 -52 -339 -359 -190 -182 -348 -329 -351 -327 -4
4 320 1624 334 1672 7 24 -14 80 187 -495z m512 -1453 c205 -574 291 -803 296
-790 6 12 7 9 3 -9 -3 -15 3 -50 14 -78 10 -27 17 -50 14 -50 -2 0 -308 257
-680 571 -371 313 -678 567 -682 564 -3 -4 2 -11 11 -16 23 -13 1331 -1117
1341 -1132 5 -8 -128 -264 -369 -707 -207 -382 -382 -701 -388 -708 -9 -9 -81
288 -304 1250 -161 695 -295 1282 -297 1305 l-5 41 357 342 356 341 22 -58
c12 -32 152 -422 311 -866z m3774 521 c0 -7 -66 -528 -146 -1158 l-146 -1144
-184 -356 c-101 -195 -184 -353 -184 -350 -1 3 -158 597 -350 1320 -191 723
-345 1318 -342 1322 8 7 1309 375 1335 377 9 0 17 -5 17 -11z m-1024 -1673
c373 -1411 367 -1388 352 -1379 -6 4 -396 341 -867 748 -471 408 -876 757
-899 777 -29 25 -42 44 -42 61 0 21 107 130 552 562 455 442 554 534 561 519
4 -10 158 -589 343 -1288z m-1841 -250 c286 -241 521 -439 523 -440 3 -2 -865
-2880 -876 -2905 -8 -19 4 -219 -117 1935 -57 1018 -100 1851 -95 1853 5 2 6
11 3 20 -5 14 -1 13 18 -4 13 -12 258 -218 544 -459z m1280 -355 c490 -424
891 -776 892 -783 4 -15 -553 -1092 -564 -1092 -4 0 -248 405 -541 899 l-533
898 -79 420 c-90 471 -82 428 -72 428 4 0 408 -347 897 -770z m-219 -985 c284
-478 518 -877 521 -885 2 -11 -284 -201 -967 -643 -535 -346 -973 -627 -975
-625 -2 2 0 30 4 63 8 70 881 2967 893 2963 4 -2 240 -394 524 -873z m-1931
-910 c304 -757 492 -1211 497 -1203 4 7 8 9 8 3 0 -5 -4 -15 -8 -21 -4 -7
-223 173 -573 470 -311 265 -745 633 -965 820 -219 186 -399 343 -399 348 0 9
934 798 945 798 3 0 225 -547 495 -1215z"/>
<path d="M7983 13378 c-106 -78 -191 -144 -189 -146 3 -2 89 58 193 134 209
153 211 154 198 153 -6 0 -97 -64 -202 -141z"/>
<path d="M6390 12536 c-162 -22 -288 -42 -279 -44 15 -3 589 72 629 82 57 14
-100 -3 -350 -38z"/>
<path d="M6330 11794 c-184 -201 -341 -375 -349 -387 -24 -37 33 23 334 353
158 173 306 334 329 358 22 23 36 42 31 41 -6 0 -161 -165 -345 -365z"/>
<path d="M18751 18287 l-965 -1012 -485 -390 c-267 -215 -760 -610 -1096 -879
-573 -459 -673 -541 -634 -520 9 5 513 408 1120 896 l1104 887 855 897 c470
493 906 950 969 1015 62 66 109 119 105 119 -5 -1 -443 -456 -973 -1013z"/>
<path d="M1 18045 c0 -5 168 -345 374 -755 206 -410 374 -740 374 -735 0 6
-168 345 -374 755 -206 410 -374 741 -374 735z"/>
<path d="M795 16527 c22 -14 760 -446 1640 -962 880 -515 1622 -950 1649 -967
26 -16 46 -25 45 -19 -6 14 -1593 1751 -1597 1746 -2 -2 345 -385 771 -852
427 -466 774 -850 772 -851 -4 -4 -88 45 -2256 1316 -564 331 -1035 604 -1045
608 -10 3 -1 -5 21 -19z"/>
<path d="M8016 12277 c3 -10 9 -15 12 -12 3 3 0 11 -7 18 -10 9 -11 8 -5 -6z"/>
</g>
</svg>
