<?xml version="1.0" encoding="UTF-8" standalone="no"?> <!-- Created with Vectornator for iOS (http://vectornator.io/) --><!DOCTYPE svg PUBLIC "-//W3C//DTD SVG 1.1//EN" "http://www.w3.org/Graphics/SVG/1.1/DTD/svg11.dtd">
<svg height="100%" style="fill-rule:nonzero;clip-rule:evenodd;stroke-linecap:round;stroke-linejoin:round;" xmlns:xlink="http://www.w3.org/1999/xlink" xmlns="http://www.w3.org/2000/svg" xml:space="preserve" width="100%" xmlns:vectornator="http://vectornator.io" version="1.1" viewBox="0 0 636 833.5">
<metadata>
<vectornator:setting key="DimensionsVisible" value="1"/>
<vectornator:setting key="PencilOnly" value="0"/>
<vectornator:setting key="SnapToPoints" value="0"/>
<vectornator:setting key="OutlineMode" value="0"/>
<vectornator:setting key="CMYKEnabledKey" value="0"/>
<vectornator:setting key="GuidesVisible" value="1"/>
<vectornator:setting key="RulersVisible" value="1"/>
<vectornator:setting key="SnapToEdges" value="0"/>
<vectornator:setting key="DisplayWhiteBackground" value="0"/>
<vectornator:setting key="doHistoryDisabled" value="0"/>
<vectornator:setting key="TimeLapseWatermarkDisabled" value="0"/>
<vectornator:setting key="SnapToGuides" value="1"/>
<vectornator:setting key="Units" value="Points"/>
<vectornator:setting key="SnapToGrid" value="0"/>
<vectornator:setting key="IsolateActiveLayer" value="0"/>
<vectornator:setting key="DynamicGuides" value="0"/>
</metadata>
<defs/>
<g id="Untitled" vectornator:layerName="Untitled">
<path stroke="#000000" stroke-width="1" d="M94.503+39.224L41.087+169.658M40.5+169.5L50.5+231M50.5+230.5L80.5+309M94.5+40.5L58.5+165.5M40.5+171.5L59.5+165M59.5+165L72+223M58.5+165L50+229.5M72+222.5L95+232.5M72+222.5L122+199M122+199.5L147+152.5M147+152L215+98M215+98.5L162+156.5M162+156.5L133+211M133+211L148.5+151M122+199L133+210.5M133+210.5L94.5+231.5M96.5+231L121+199M97+232L76+243M76+243L51+229.5M77.5+243L80+309.5M-1+254L24+304M-0.5+253L30.5+299M30.5+298.5L80.5+310M80.5+310L33.5+292.5M33.5+292.5L-0.5+252.5M24.5+304L132+367M132+367L79.5+309.5M79.5+309.5L145+351M145+351L212.5+381.5M212.5+381.5L219+368.5M229+374.5L201+356.5M201+356.5L143.5+349.5M143.5+349.5L97+309M97+309L77.5+241M132+366L213+381.5M213+381.5L220+384.5M220+384.5L248.5+411.5M248.5+411.5L248+425M248+425L258+441.5M258+441.5L262.5+400.5M262.5+400.5L249.5+410M262.5+400.5L278+387.5M278+387.5L229.5+374.5M229.5+374.5L263+401M229.5+373L239.5+402.5M200+356.5L159+294M159+294L166+216M166+216L176.5+298M176.5+298L224.5+356M224.5+355.5L278+389M176.5+297.5L194.5+348M217.5+289L237+364M217+289.5L244+224M244+224L230.5+295M230.5+295L248.5+354M248.5+354L277.5+388.5M217.5+289.5L231+296.5M231+296L232.5+346.5M258.5+441L300+403M300+403L263+399.5M300+402.5L291+392.5M291+392.5L277.5+388M258+441L249.5+445.5M249.5+445.5L241+442M241+442L175.5+387.5M175.5+387.5L155.5+386.5M155.5+386.5L154+407.5M154+407.5L169+445.5M169+445.5L192+471M192+471L230.5+486M230.5+486L252+505.5M252+505.5L245.5+488.5M245.5+488.5L243+467M243+467L249.5+444.5M242.5+442.5L224.5+457M225+457L244.5+467M244+467L272+468.5M272+468.5L256.5+440.5M215+444L222+452M222+452L251+504.5M214+444L230+486M213.5+444.5L191+469M214+443.5L169+444.5M169+444.5L168+401M168+401L175.5+388.5M155+388L169+400M169+400L155+407M169+400L183+434.5M182.5+434.5L195.5+403M183+435.5L227+429.5M183+435.5L213.5+444M299.5+403L327+403M327+402.5L337.5+393M337.5+393L350+388M350+388L346+416.5M346+416.5L336.5+394M311.5+403L272+468.5M272+468.5L300+402.5M257.5+441L281+447M311.5+403L314+497.5M314+497.5L273+467M273+467L277+490M277+490L289+514.5M289+514.5L314+497M314+497L358.5+464.5M359+464.5L337.5+448M337.5+448L313.5+497M337.5+447.5L311+401.5M272.5+467L251+505.5M251+505.5L265+506.5M265+506.5L277.5+489.5M266.5+506L253.5+530.5M251.5+506L257+574.5M265+504.5L289.5+515M289.5+515L266+565.5M266+565.5L254+529.5M288.5+515L314+521.5M314+521L338+511.5M338+511.5L313.5+495.5M338+510.5L352.5+520.5M352.5+520.5L374+482.5M374.5+482.5L359+463.5M359+463.5L346.5+415.5M311+403.5L350+428M350.5+428.5L381+413M381+413L346.5+416.5M350+388.5L381.5+414M382.5+413L393.5+387.5M393.5+387.5L379+377M379+377L375+359M375+359L348+389.5M348+389.5L380+376.5M394+387.5L349+388.5M391+355L393.5+388.5M393.5+388.5L416.5+367M416.5+367L497+339M375+359L399+298.5M399+298.5L389+240.5M389+240.5L411+300.5M411+300.5L391+355.5M391+355.5L393.5+312M392+355.5L416+345M416.5+345L467+303.5M467+303.5L486.5+269M486.5+269L494.5+216M494.5+216L501+270.5M501+270.5L481.5+310M481.5+310L457+332.5M457+332.5L466.5+304M457.5+332.5L417+343.5M407+349.5L424.5+344.5M424.5+344.5L497+338M497+338L533.5+271.5M512.5+309.5L630.5+215.5M630.5+215.5L635+156.5M635+156.5L618+210M618+210L558.5+260M558.5+260L550+264M550+264L533.5+272M533.5+272L551.5+191M552+191.5L540.5+169.5M540.5+169.5L489.5+131.5M489.5+131.5L438.5+55M438.5+55L504.5+127.5M504.5+127.5L491.5+133M504+126.5L541.5+170M541.5+170L564.5+178.5M564.5+178.5L550+159M550+159L504+126.5M565+179L556+261M549.5+201.5L550+265M560+258L581.5+176.5M581.5+176.5L596.5+85.5M596.5+86L544+0M544+0L578+89.5M578+89.5L577+115.5M577+116L564.5+178.5M564.5+178.5L588+133.5M589.5+122.5L578+115.5M578+116L596+86M596.5+86L556.5+33M498+338L569+281M569+281L631+216M381.5+413L380.5+429.5M380.5+429.5L358.5+464.5M358.5+464.5L374.5+461M374.5+461L379+444M379+444L374+439M379+443.5L391.5+441.5M391.5+441.5L430+392.5M430+392.5L454+377.5M454+377.5L475.5+376.5M475.5+376.5L474.5+399.5M474.5+399.5L467+412M467+412L462+440.5M462+440.5L440+468M440+468L459.5+391M459.5+391L475+376.5M460+391L474.5+398.5M459.5+390.5L467+412M460+390L453.5+377M450.5+424.5L429.5+392.5M451+424L400.5+428.5M451+424.5L417.5+442.5M417.5+442.5L400+431.5M418+442L441+467.5M441+467.5L424+474M424+474L387.5+506.5M387.5+506.5L418+441M418+441L415.5+482M379+443.5L389+460.5M389+460.5L388.5+477.5M388.5+477.5L384+494.5M374.5+461L387.5+507M374.5+483L383.5+492.5M387+506L385.5+521.5M385.5+521.5L398.5+591.5M386+521.5L339.5+537.5M339.5+537.5L352+520.5M533+271.5L493+322.5M493+322.5L456.5+333M339.5+537.5L353.5+543.5M353.5+543.5L385+541M388+533L353.5+586M382.5+541.5L378.5+564M378.5+564.5L354+586.5M379+564L425.5+659.5M425.5+659.5L398.5+591M339.5+538L333+555.5M333+555.5L308+557M308+557L321+569.5M321+569.5L334+555.5M334+555.5L354.5+587M334+555.5L354+543M308+557L302.5+542.5M302.5+542.5L287.5+549.5M282+531L297.5+591M297.5+591L307.5+556.5M302+543.5L282.5+530.5M266+564.5L298.5+591.5M298.5+591.5L287.5+591M287.5+591L265+563.5M265+563.5L270.5+669M270.5+669L294+646.5M294+646.5L265+563.5M282.5+611L270.5+670.5M287.5+591L315.5+707M315.5+707L293.5+645.5M315.5+707L270.5+669M270.5+669L290+753M290+753L315+707M315+707L322+832M321.5+831.5L350.5+735.5M350.5+735.5L315+705.5M350.5+735.5L345+706.5M345+706.5L381+671.5M381+671.5L425.5+659M381.5+672L378.5+564M354.5+585.5L381.5+671.5M354+585.5L345.5+707.5M345.5+707.5L319.5+595.5M319.5+595.5L320.5+569M319+594.5L355+585M319.5+595L297.5+591.5M289.5+600L333+646.5M289+599L345.5+708M345+707L404.5+758.5M404.5+758.5L381.5+671.5M425.5+659L416+733.5M416+733.5L385+793.5M385+793.5L350+734.5M384.5+793L322+833.5M322+833.5L259+780M259+780L290+754M290+754L322+833.5M258.5+780.5L251.5+703.5M251.5+703.5L257+574M251.5+703L271.5+670M256.5+573.5L231+645.5M231+645.5L233+722M233+722L259+780.5M328+630.5L353.5+585.5" fill="none" stroke-linecap="square" opacity="1" stroke-linejoin="miter"/>
<path d="M44.9615-3.57386L680.962-3.57386L680.962-3.57386L680.962+829.926L680.962+829.926L44.9615+829.926L44.9615+829.926L44.9615-3.57386L44.9615-3.57386Z" opacity="1" fill="none"/>
<path stroke="#000000" stroke-width="1" d="M347.102+451.782C346.91+452.051+346.718+452.32+346.526+452.589" fill="none" stroke-linecap="round" opacity="1" stroke-linejoin="round"/>
</g>
</svg>
