<?xml version="1.0" standalone="no"?>
<!DOCTYPE svg PUBLIC "-//W3C//DTD SVG 20010904//EN"
 "http://www.w3.org/TR/2001/REC-SVG-20010904/DTD/svg10.dtd">
<svg version="1.0" xmlns="http://www.w3.org/2000/svg"
 width="761.000000pt" height="723.000000pt" viewBox="0 0 761.000000 723.000000"
 preserveAspectRatio="xMidYMid meet">

<g transform="translate(0.000000,723.000000) scale(0.100000,-0.100000)"
fill="#000000" stroke="none">
<path d="M3553 7151 c-226 -195 -400 -495 -443 -763 -19 -117 -9 -276 24 -371
14 -42 26 -81 26 -86 0 -5 -37 -14 -82 -20 -46 -7 -112 -16 -148 -21 -63 -10
-181 -24 -436 -55 -459 -56 -829 -318 -957 -680 -25 -70 -54 -199 -59 -264 -3
-31 -7 -35 -64 -55 -187 -68 -371 -241 -481 -454 -104 -199 -146 -368 -147
-594 l-1 -146 -73 -36 c-556 -275 -813 -885 -652 -1544 40 -164 81 -275 160
-437 177 -364 408 -625 765 -862 918 -610 2431 -881 3863 -693 739 98 1422
330 1899 646 314 208 522 425 645 674 137 278 198 540 198 857 0 478 -164 919
-457 1223 -50 52 -118 115 -152 140 l-60 45 -1 80 c0 44 -7 127 -15 185 -43
322 -156 576 -345 774 -110 115 -201 175 -371 243 -21 9 -27 21 -37 78 -44
237 -154 445 -313 588 -90 83 -272 193 -494 302 -249 121 -441 198 -770 307
-297 99 -407 147 -542 237 -108 72 -245 213 -290 296 -52 99 -66 164 -60 274
4 53 9 110 12 127 5 22 2 36 -10 47 -29 30 -60 20 -132 -42z m57 -346 c104
-297 428 -535 937 -689 519 -157 1045 -416 1252 -617 56 -55 151 -192 177
-256 8 -21 21 -52 29 -68 42 -91 54 -177 57 -385 l3 -205 -31 -75 c-101 -250
-343 -452 -729 -607 -580 -233 -1425 -286 -2156 -134 -682 142 -1210 422
-1448 766 -94 135 -121 222 -115 362 16 358 267 651 674 787 85 29 151 41 350
66 334 42 528 69 570 80 35 9 38 8 103 -55 79 -75 199 -139 294 -157 56 -10
65 -10 83 7 40 36 16 64 -75 90 -176 50 -300 162 -356 320 -96 275 19 647 297
954 l49 55 7 -90 c3 -49 16 -116 28 -149z m2680 -2021 c179 -94 345 -300 436
-541 31 -82 70 -255 85 -373 14 -116 6 -327 -16 -430 -90 -423 -553 -798
-1285 -1040 -832 -276 -1863 -326 -2783 -134 -546 114 -1031 320 -1352 574
-147 117 -316 323 -398 485 -52 105 -97 305 -97 437 0 80 35 310 60 389 61
198 186 384 333 495 64 49 170 104 198 104 11 0 20 -15 28 -47 7 -27 40 -95
74 -153 87 -147 262 -323 435 -439 455 -301 1099 -487 1810 -520 628 -30 1232
74 1677 289 430 207 675 508 675 829 0 42 3 86 6 99 8 27 21 25 114 -24z
m-5461 -1344 c73 -282 335 -596 681 -815 979 -620 2762 -755 4064 -308 766
263 1253 680 1339 1148 l13 67 54 -46 c225 -191 402 -512 478 -865 25 -117 27
-143 27 -371 0 -216 -3 -258 -23 -358 -61 -302 -196 -582 -372 -775 -182 -198
-521 -425 -863 -577 -704 -312 -1636 -470 -2551 -431 -376 16 -619 43 -966
106 -857 157 -1607 492 -2030 907 -116 114 -269 333 -365 526 -382 764 -214
1525 409 1854 39 20 74 34 77 30 3 -4 16 -45 28 -92z"/>
</g>
</svg>
